<svg xmlns="http://www.w3.org/2000/svg" pointer-events="none" class="leaflet-zoom-animated" width="1988" height="1252" viewBox="-166 -104 1988 1252" style="transform: translate3d(-166px, -104px, 0px);"><g><path class="leaflet-interactive" stroke="red" stroke-opacity="1" stroke-width="2" stroke-linecap="round" stroke-linejoin="round" stroke-dasharray="1,6" fill="none" d="M-86 421L-80 418L-80 414L-85 412L-86 408L-83 405L-85 403L-85 398L-88 394L-88 389L-86 385L-88 383L-103 379L-105 382L-104 383L-106 384L-111 380"/><path class="leaflet-interactive" stroke="blue" stroke-opacity="1" stroke-width="0.7" stroke-linecap="round" stroke-linejoin="round" fill="none" d="M814 965L816 965L814 965M811 965L809 965L811 965M825 966L825 966M804 971L803 970L804 971M818 975L818 975M794 817L793 820L791 818L790 819L790 822L787 821L788 825L783 820L783 818L783 822L780 826L777 823L772 828L769 827L765 829L763 827L760 827L757 830L759 831L754 831L749 834L746 833L742 836L742 834L729 838L727 841L717 846L717 849L722 851L722 854L724 854L726 859L723 863L717 865L711 865L711 860L705 849L708 838L711 836L706 835L704 833L695 837L691 835L694 833L684 831L682 829L679 833L668 833M685 831L685 831M741 872L741 872M741 872L741 872M741 872L741 872M741 872L741 872M742 871L742 871M742 871L742 871M761 833L761 833M776 829L776 829M778 828L778 828M778 828L778 828M778 828L776 832L775 829L778 828M778 828L778 828M782 1114L782 1114M782 1114L782 1114M782 1114L782 1114M782 1114L782 1114M782 827L782 827M794 819L794 819M794 816L794 816M795 816L794 816M794 816L794 816M795 816L795 816M795 816L795 816M795 816L795 816M809 816L805 814L804 817L801 817L804 813L802 813L802 811L805 809L803 809L802 811L798 803L798 808L794 811L796 811L795 816M798 823L798 823M800 808L800 808M802 817L802 817M803 817L803 817M803 816L803 816M805 817L805 817M806 824L806 824M811 814L809 816M809 809L810 808M869 787L867 789L868 791L862 794L863 795L861 799L857 798L852 802L847 802L846 804L842 800L840 801L840 806L838 804L836 805L835 802L828 802L825 808L821 807L820 802L817 805L818 810L816 811L814 807L809 809M809 809L809 809M810 808L810 808M810 811L810 811M810 808L811 809M810 808L810 808M810 808L810 808M810 809L810 809M811 815L811 815M811 812L811 812M811 809L811 809M811 809L813 811L812 813M811 810L811 810M811 809L811 809M811 809L811 809M811 810L811 810M811 809L811 809M811 809L811 809M811 812L811 812M811 809L811 809M811 812L811 812M811 812L811 812M811 812L811 812M811 812L811 812M811 809L811 809M811 814L811 814M811 814L811 814M811 812L811 814M811 814L811 814M811 814L811 814M811 814L811 814M811 814L811 814M811 812L811 812M811 812L811 812M811 814L811 814M811 812L811 812M811 812L811 812M811 812L811 812M811 812L811 812M811 812L811 812M811 812L811 812M811 812L811 812M812 813L811 812M812 814L812 814M812 813L812 813M812 815L812 815M813 813L813 813M813 815L813 815M813 814L813 814M813 814L813 814M813 812L813 812M813 812L813 812M813 812L813 812M813 812L813 812M813 811L813 811M837 805L837 805M839 805L839 806M846 804L846 804M846 804L846 804M869 787L869 787M869 787L869 787M869 787L869 787M870 786L869 787M870 786L870 786M870 786L870 786M870 786L870 786M898 758L896 762L899 766L896 767L890 775L888 775L886 780L885 779L883 783L877 783L873 785L872 784L870 786M870 784L870 784M876 788L876 788M897 768L897 768M898 758L898 758M898 758L898 758M898 758L900 759L898 762L898 758M904 758L898 758M898 763L898 763M899 762L899 762M904 761L904 761M904 761L904 761M904 761L905 759L906 762L904 761L902 763L902 760L904 761M904 761L904 761M904 758L904 758M904 758L904 758M904 758L904 758M910 758L908 760L907 757L904 758M905 759L905 759M906 760L906 760M910 758L910 758M919 748L917 748L914 751L910 751L913 753L910 758M910 758L910 758M910 758L910 758M911 756L911 756M911 756L911 756M918 743L917 743M918 747L918 747M919 748L919 748M936 737L933 736L933 739L931 737L930 738L927 734L924 737L924 735L922 736L921 737L927 741L925 741L924 743L921 742L921 746L920 742L918 742L917 740L916 741L918 743L916 745L919 748M922 737L922 737M928 737L928 737M929 738L929 738M929 738L929 738M932 739L932 739M932 729L932 729M932 739L932 739M932 733L932 733M932 732L932 732M933 738L933 738M933 730L933 730M934 739L934 739M934 733L934 733M934 731L934 731M935 737L935 737M936 737L936 737M936 737L936 737M936 737L936 737M967 676L963 674L960 675L955 682L957 685L954 688L953 693L948 694L942 700L944 704L943 706L939 707L938 709L937 707L940 706L942 702L940 702L938 705L934 704L931 706L935 706L938 712L940 713L933 715L932 718L934 724L932 725L932 730L929 731L933 735L936 730L938 733L935 736L936 737M936 716L936 716M936 731L936 731M937 734L937 734M938 713L938 713M939 712L939 712M940 717L940 717M940 717L940 717M940 717L940 717M940 717L940 717M941 722L941 722M941 716L941 716M941 716L942 716M958 682L958 682M960 695L960 695M960 695L960 695M960 695L960 695M963 318L957 324L951 335L930 344L926 349L924 359L916 366L908 366L907 367L909 371L907 372L904 371L904 369L900 369L898 364L896 363L892 366L892 374L887 375L889 377L889 379L887 380L887 384L890 388L894 388L893 390L895 393L898 390L897 394L909 397L909 395L912 394L915 394L917 396L921 404L923 404L924 408L921 407L918 409L918 418L925 422L925 424L935 424L938 420L937 418L946 412L946 408L949 408L951 406L962 404L963 406L967 407L968 411L972 409M1041 337L1035 347L1028 345L1021 348L1020 347L1018 349L1018 347L1015 348L1015 350L1006 352L992 360L992 362L989 363L989 366L983 369L984 370L982 371L981 369L978 371L980 372L979 374L976 373L975 375L970 376L968 378L965 372L970 371L972 368L977 368L977 362L979 361L975 361L970 358L970 352L974 351L974 346L981 342L987 331L991 329L990 328L992 327L992 325L989 321L985 320L985 316L983 316L982 313L979 316L971 313L967 314L963 318M966 676L966 676M986 643L985 644L984 642L983 643L981 641L977 641L980 644L981 648L979 649L979 652L976 654L979 659L979 662L977 665L976 663L972 667L970 667L969 670L967 670L966 668L963 672L966 674L967 673L967 676M967 676L967 676M967 676L967 676M967 677L967 677M972 409L976 415L978 413L984 414L987 412L990 412L990 415L1002 415L1002 417L1000 417L999 419L1000 422L997 424L997 426L999 426L999 430L991 432L986 429L981 431L978 435L975 434L967 437L964 440L961 439L963 440L963 443L961 443L961 445L958 443L956 445L957 452L948 454L949 450L945 450L943 452L948 456L945 459L942 459L942 462L938 467L937 466L933 468L931 473L927 477L926 482L923 482L923 488L925 490L929 490L928 493L947 503L961 536L960 537L962 539L963 545L961 546L963 547L963 549L973 554L974 561L981 564L984 569L985 572L983 574L971 569L964 572L969 575L971 579M971 606L971 606M971 579L980 584L986 592L986 601L989 603L986 601L984 597L979 597L965 604L969 608L971 608L980 619L988 622L989 621L987 624M974 411L974 411M974 411L974 411M975 411L974 411M975 411L975 411M975 411L975 411M975 411L975 411M975 411L975 411M975 412L975 412M975 412L975 412M976 668L976 668M976 669L976 669M976 669L976 669M976 669L976 669M976 669L976 669M977 612L977 612M982 655L982 655M987 624L982 628L986 630L986 643M987 613L987 613M987 624L987 624M987 624L987 624M987 624L987 624M987 431L987 431M990 620L990 620M990 620L990 620M990 620L990 620M990 620L990 620M990 620L990 620M990 620L990 620M990 620L990 620M990 620L990 620M991 413L991 413M995 618L995 618M996 618L996 618M996 618L996 618M996 618L996 618M997 617L997 617M997 612L997 612M998 622L998 622M999 613L999 613M1011 356L1011 355M1011 355L1011 355M1011 357L1011 357M1014 351L1014 351M682 887L683 885L689 882L697 872L702 873L705 870L714 871L717 868L725 869L729 866L730 869L735 870L737 876L737 879L733 882L727 891L727 898L726 900L724 900L724 903L721 903L716 906L714 910L708 910L707 914L704 915L697 912L689 911L688 909L683 907L683 902L681 899L682 887M692 846L693 844L694 845L692 846M726 1148L726 1148M725 844L725 848L724 846L718 848L720 844L725 844M726 844L724 842L725 841L727 841L726 844M728 848L727 849L727 847L728 848M746 940L748 939L747 941L746 940M751 960L749 961L750 962L749 961L751 960M751 1137L751 1137M753 965L755 964L753 965M758 958L760 958L758 958M764 942L765 943L764 942M768 959L771 959L768 959M769 966L772 964L773 965L769 966M770 955L772 953L770 955M770 1117L772 1117L770 1117M771 832L772 829L773 831L771 832M771 1133L773 1134L771 1133M781 883L782 882L781 883M788 1148L789 1145L790 1146L788 1148M794 817L794 817M796 1130L798 1129L796 1130M800 891L800 889L802 889L800 891M803 1133L804 1134L803 1133M804 1132L806 1134L804 1132M810 1101L811 1099L812 1100L810 1101M815 1087L817 1085L818 1086L815 1087M815 1090L816 1088L817 1089L815 1090M818 1133L819 1132L818 1133M818 1107L820 1107L818 1107M818 1073L818 1071L818 1073M820 1072L821 1073L820 1072M820 1098L821 1099L820 1098M820 1083L822 1081L820 1083M820 962L822 961L820 962M825 1086L825 1086M831 1143L834 1144L833 1145L831 1143M835 1014L837 1014L835 1014M838 1109L840 1109L838 1109M838 1141L840 1141L838 1141M846 1113L847 1111L848 1113L846 1113M848 847L850 847L848 847M848 844L851 843L851 845L848 844M849 1122L850 1123L848 1123L849 1122M851 1104L851 1104M861 1097L862 1096L861 1098L864 1098L861 1099L861 1097M864 1095L866 1094L864 1095M865 958L867 958L865 958M867 852L868 851L871 854L867 856L870 854L870 852L867 852M876 786L871 786L876 786M878 1090L882 1090L878 1090M879 1081L879 1083L879 1081M890 1088L891 1087L891 1089L890 1088M929 742L931 742L929 742M933 783L931 785L931 782L933 783M933 706L935 705L933 706M942 791L943 780L951 768L956 757L961 753L964 746L971 744L976 739L984 744L986 747L982 753L984 759L978 770L973 794L968 803L964 806L961 814L961 824L955 821L956 818L954 813L947 809L944 797L941 796L942 791M949 699L949 697L949 699M966 672L964 672L966 672M978 574L985 577L986 579L984 581L977 579L967 571L970 569L978 574M974 805L975 806L974 805M975 819L977 820L976 821L975 819M981 584L975 580L977 580L981 584M982 583L984 583L984 585L982 583M983 617L985 619L983 620L983 617M985 587L986 588L985 587M985 611L986 610L985 611M990 610L992 611L991 613L988 612L990 610M990 628L988 626L989 624L991 626L990 628M992 617L994 618L993 620L987 619L985 614L993 616L992 617M992 623L993 625L992 623M993 626L991 625L993 626M993 612L995 612L993 612M994 620L996 621L995 622L994 620M994 608L994 606L996 607L994 608M995 620L995 618L995 620M1009 354L1009 354M1013 369L1012 367L1014 368L1013 369M1016 729L1022 729L1016 732L1016 729M1022 724L1025 722L1027 723L1026 725L1022 724M1043 724L1046 724L1042 725L1043 724M889 985L889 987L891 987L889 987L889 985"/><path class="leaflet-interactive" stroke="#F2F7F7" stroke-opacity="1" stroke-width="0.2" stroke-linecap="round" stroke-linejoin="round" stroke-dasharray="1,10" fill="none" d="M251 453L246 452L244 449L241 448L238 449L236 447L231 446L230 448L226 443L223 442L204 446L200 446L200 444L198 444L193 448L187 447L181 450L179 449L171 452L172 455L170 456L170 458L166 462L160 463L158 466L150 462L145 463L135 467L132 469L132 471L125 474L122 472L113 475L109 473L103 473L98 469L98 465L93 466L88 464L86 464L73 477L65 477L63 475L58 475L54 473L54 475L48 475L40 471L39 473L37 473L38 477L31 485L26 498L16 500L11 499L8 500L9 502M434 552L427 550L425 552L427 558L425 558L423 561L424 564L416 564L416 566L411 566L413 569L413 574L408 573L404 571L403 568L401 568L399 570L399 576L394 571L392 571L391 573L383 572L380 567L382 561L379 562L377 557L374 559L374 557L377 556L370 555L364 548L361 550L360 549L359 551L358 550L356 552L353 552L352 554L346 553L343 550L341 550L339 553L336 551L335 552L332 548L328 549L326 546L309 546L308 542L304 542L303 544L293 536L276 536L269 531L267 532L264 527L258 524L258 519L251 513L250 510L251 508L254 507L255 502L253 501L254 496L252 491L255 489L253 486L248 486L249 481L246 478L247 474L252 470L251 468L253 467L253 460L246 459L244 455L249 455L251 453M313 369L281 379L273 379L268 385L261 385L261 389L264 392L266 392L266 390L270 390L270 407L276 409L279 413L283 415L288 427L284 427L281 430L277 430L274 433L274 437L277 440L281 441L281 447L284 453L277 455L276 453L259 449L257 454L251 453M514 503L523 508L530 508L533 503L535 503L535 497L531 497L529 494L530 487L540 479L538 476L538 472L540 472L542 468L548 470L549 469L547 462L549 460L552 460L553 458L552 453L554 450L550 446L547 438L545 438L545 435L547 434L546 432L542 429L542 425L545 425L545 423L534 413L531 407L527 409L523 407L522 404L519 403L517 405L513 403L511 400L510 401L506 399L506 394L505 395L503 392L493 390L493 388L491 388L491 386L487 384L486 385L489 389L489 393L478 386L464 373L464 371L457 367L453 372L447 369L445 372L446 373L442 376L433 371L428 366L416 364L418 366L416 371L419 382L416 383L413 381L410 385L410 392L403 391L399 395L393 392L392 390L391 391L391 389L387 388L382 390L376 389L375 387L371 386L368 388L361 388L357 377L346 378L344 377L343 375L346 375L343 372L330 372L330 365L324 365L313 369M403 258L398 261L394 267L396 267L395 270L399 273L396 275L398 278L395 282L391 285L385 286L379 291L379 293L377 292L375 287L369 290L366 294L361 295L349 307L345 314L344 320L325 323L318 355L311 363L313 369M583 415L581 416L569 405L563 403L562 398L562 396L566 394L566 391L563 387L573 380L581 371L581 365L578 361L579 357L573 356L567 358L562 360L554 367L544 365L541 362L533 366L527 367L532 373L526 380L522 380L521 378L516 376L516 374L514 374L513 369L511 371L508 371L504 368L505 358L497 358L497 356L493 355L493 352L491 350L483 347L481 344L474 344L482 340L489 332L489 324L491 322L491 319L487 313L478 312L476 315L467 315L467 318L465 320L462 317L458 319L458 321L456 321L455 317L453 318L454 320L448 323L448 313L439 307L431 296L437 291L421 255M526 524L526 526L523 528L523 535L518 532L516 534L516 532L512 531L512 548L503 548L501 551L498 550L495 546L491 546L490 549L488 547L488 543L483 537L483 539L480 541L481 542L479 546L472 541L470 542L466 537L463 537L458 533L457 526L449 515L449 510L439 506L435 506L432 508L432 513L428 515L426 514L427 522L430 526L434 528L431 530L428 536L430 538L427 539L425 542L427 547L434 552M465 639L463 629L464 618L461 604L462 599L458 595L454 587L455 583L458 586L460 582L449 570L450 566L444 556L437 552L434 552M443 667L446 665L445 661L447 661L449 665L448 666L450 668L453 666L454 667L457 662L454 658L454 653L456 652L454 646L458 645L459 649L462 649L462 641L465 639M606 678L606 671L604 671L604 669L601 668L594 674L593 673L591 675L587 673L585 670L587 668L587 665L582 660L582 657L586 655L573 654L572 657L574 663L570 666L568 664L564 668L566 672L560 681L561 682L559 682L556 686L553 686L551 689L551 698L555 709L554 712L548 715L547 717L545 716L545 713L541 714L534 720L529 719L528 721L525 716L522 715L523 712L517 708L519 707L520 703L517 704L517 699L511 696L512 692L509 691L502 674L496 674L493 678L493 675L489 673L490 672L486 667L490 664L484 655L479 652L479 650L477 650L475 655L472 657L472 665L471 666L468 663L465 651L465 639M514 503L510 503L508 501L504 503L503 506L508 514L513 517L512 521L522 520L522 525L526 524M611 541L608 542L610 546L602 550L600 548L597 550L596 548L594 549L588 545L587 546L583 543L583 540L585 540L583 531L586 531L585 529L583 530L581 527L581 523L578 520L566 520L566 517L560 518L557 516L558 509L555 506L553 506L553 503L549 504L545 507L545 509L542 509L538 512L534 512L539 519L538 521L542 524L540 528L536 528L536 532L534 531L528 536L526 532L528 530L529 525L528 523L526 524M660 403L656 400L655 401L655 399L649 394L640 394L633 390L636 388L638 378L644 372L640 360L636 359L634 362L628 362L629 365L625 365L624 371L621 372L622 374L619 380L619 390L617 393L617 405L613 405L613 407L611 408L606 407L600 411L586 413L583 415M583 415L592 416L593 418L590 421L596 422L598 426L604 429L603 430L607 433L607 435L604 435L604 437L608 442L611 452L607 455L607 459L610 464L617 464L616 465L618 468L622 469L624 473L628 472L630 477L634 474L632 469L633 463L639 465L643 462L641 459L643 458L644 453L641 450L633 448L634 443L631 440L636 435L636 424L639 425L640 423L642 425L643 423L645 425L649 423L651 425M606 678L604 686L600 686L596 689L595 687L591 689L586 685L581 690L575 686L568 694L568 696L569 695L571 698L570 703L573 709L578 709L579 706L584 706L586 704L592 711L588 718L589 719L587 721L586 728L584 728L584 731L588 735L589 734L591 740L595 741L595 743L594 742L592 744L593 747L589 754M589 754L588 759L590 762L593 764L594 761L602 762L604 764L604 770L611 772L611 769L613 769L614 771L620 771L620 769L623 770L625 773L626 779L624 784L618 784L612 792M701 721L698 729L691 727L688 730L691 729L691 733L686 734L684 731L681 736L682 739L675 734L670 742L665 744L659 739L659 741L656 742L656 740L652 737L652 734L646 733L644 736L645 740L643 742L625 749L627 751L623 755L618 755L611 752L609 749L605 749L604 747L600 750L599 753L597 753L593 757L589 754M631 657L630 658L626 656L622 652L615 656L613 660L615 664L618 663L620 665L619 667L627 667L630 672L629 676L621 678L620 677L616 679L612 677L606 678M651 425L652 430L656 430L659 433L660 432L668 437L669 439L671 440L672 438L673 440L675 440L677 444L682 445L682 449L684 452L683 456L679 459L679 464L682 468L682 475L673 477L672 475L669 477L662 475L660 477L662 482L664 483L663 485L657 486L649 487L649 485L643 481L635 481L633 484L635 490L630 495L630 497L636 499L638 503L636 505L634 503L635 507L631 514L635 522L634 525L632 524L632 522L626 524L624 522L621 522L618 528L616 528L616 531L621 533L620 539L614 542L611 541M679 560L673 558L668 560L667 562L660 555L657 555L655 551L653 551L651 555L647 551L645 546L639 546L632 549L626 547L623 543L618 543L618 545L613 547L611 541M697 658L695 659L691 667L688 665L684 665L685 659L684 658L681 662L682 655L678 655L675 653L675 643L663 645L664 644L662 640L654 640L654 649L650 651L649 648L646 648L645 651L643 650L641 652L642 655L639 655L639 659L635 658L637 655L633 650L634 657L631 657M631 657L627 647L624 648L623 646L620 647L617 645L615 640L611 638L606 631L606 629L608 629L610 626L611 627L616 622L616 618L612 614L614 614L613 613L616 612L618 608L620 608L626 611L626 613L628 614L632 611L635 611L637 612L636 613L639 618L646 618L657 602L655 601L657 596L659 597L662 595L662 597L664 598L667 596L666 594L670 587L669 586L673 581L672 579L675 579L679 575L680 572L674 567M644 617L644 617M644 617L644 616M651 425L653 423L651 421L651 415L660 403M739 359L737 357L739 354L733 355L729 362L726 361L726 359L722 361L717 356L716 357L718 361L712 364L706 370L705 374L698 379L699 381L697 381L689 391L689 393L692 396L690 401L686 397L686 408L671 410L665 404L660 403M674 567L678 563L676 561L679 560M679 560L697 571L697 573L704 573M704 573L707 574L707 578L711 579L717 584L717 594L715 598L711 595L708 596L698 606L699 604L697 602L694 605L692 603L693 602L690 602L687 606L684 606L683 604L681 606L677 606L680 612L680 622L676 623L678 626L681 623L683 623L683 626L688 629L687 633L689 634L689 636L692 634L694 638L693 639L696 642M696 642L698 644L696 646L697 652L695 654L697 658M803 644L800 642L798 643L796 641L796 635L798 635L799 633L797 632L797 628L794 627L794 623L783 634L783 631L780 633L779 629L782 625L780 627L780 625L778 625L774 630L769 628L767 631L765 631L766 630L761 628L754 621L748 622L741 618L732 616L730 616L729 618L724 618L726 619L725 622L728 625L725 627L724 626L723 628L716 624L708 625L708 627L705 629L704 628L700 632L698 638L696 639L696 642M701 721L701 714L697 714L700 708L697 704L702 703L700 699L703 698L702 694L695 693L694 695L693 693L688 696L686 694L694 685L696 686L701 680L697 672L699 670L697 668L699 664L696 660L697 658M759 754L751 753L748 756L746 755L746 745L744 744L740 745L738 749L735 748L736 743L743 736L743 729L746 726L740 723L742 719L741 715L735 712L734 715L730 716L730 714L727 713L721 723L719 723L719 721L717 720L715 721L715 719L712 717L708 722L709 725L706 725L707 722L701 721M736 532L732 533L729 536L726 532L724 534L702 532L702 535L708 537L709 542L710 541L716 543L718 549L715 549L714 551L707 549L702 555L705 567L704 573M708 835L707 836M722 823L718 825L713 824L711 830L707 831L708 835M709 868L714 867M716 867L721 866M722 495L719 494L718 489L727 467L723 451L725 442L722 437L722 427L725 425L729 418L727 416L730 415L731 412L731 409L729 407L730 406L725 400L725 394L726 390L733 386L733 381L736 374L735 370L739 368L741 363L739 359M722 495L722 500L725 502L723 503L723 505L728 507L726 511L728 513L726 515L728 515L736 523L736 532M722 495L729 495L730 493L732 494L735 491L739 491L739 489L747 489L752 484L760 482L761 476L765 478L773 478L773 476L774 478L776 478L783 474L784 475L786 471L788 472L796 465L795 461L798 452L796 451L798 446M722 823L721 817L728 818L730 814L730 808L737 806L744 800L746 796L744 795L745 785L747 784L747 781L750 781L751 776L755 776L755 774L757 773L756 766L760 764L759 759L757 757L757 755L759 754M723 865L727 863M835 582L832 581L830 576L829 579L824 580L817 577L818 572L814 573L809 570L804 572L802 569L801 570L798 563L799 555L797 554L791 558L789 558L789 556L786 554L784 556L782 554L777 556L771 555L766 557L763 555L762 556L752 549L749 550L746 546L747 545L745 545L745 543L741 541L742 539L736 532M807 318L805 322L806 325L803 325L801 327L799 325L794 330L790 331L787 328L782 329L776 335L769 331L764 335L758 346L757 352L754 353L748 350L746 351L746 355L739 359M759 754L763 749L761 747L763 742L775 745L777 750L782 748L782 742L778 739L783 738L784 735L787 734L795 739L799 739L803 736M825 452L819 452L805 448L806 447L804 446L798 446M798 446L794 442L795 440L792 438L799 431L799 423L803 418L807 408L804 407L805 406L800 394L794 391L793 388L795 386L795 380L798 380L798 378L801 375L799 371L805 366L807 368L812 368L812 365L814 365L815 363L814 360L817 353L814 352L813 350L813 344L805 343L805 341L803 340L804 337L805 339L806 338L806 335M803 736L804 732L802 729L805 725L805 720L810 718L803 718L807 707L801 705L800 701L802 698L799 693L801 691L801 687L795 688L795 680L799 676L798 673L805 670L804 667L807 666L807 664L809 664L810 662L809 658L806 656L808 649L806 649L803 646L803 644M853 624L849 626L843 623L839 623L838 626L833 629L829 627L830 632L827 630L824 633L824 635L811 635L809 639L806 640L803 644M803 736L805 740L811 740L815 737L818 737L821 740L821 743L813 748L811 754L808 756L810 756L814 760L816 758L824 758L827 755L834 753L835 754L836 752L840 757L844 759L844 753L847 749M806 335L806 335M806 335L816 331L814 329L811 329L811 324L807 318M873 267L871 267L870 269L871 273L868 274L870 277L868 281L867 280L865 282L860 282L859 280L857 280L854 284L852 284L852 287L850 287L848 282L845 283L835 289L833 293L824 292L824 286L826 285L824 277L817 276L815 279L816 281L813 281L809 286L809 295L806 294L801 298L803 299L802 302L804 302L804 305L802 305L800 308L805 312L807 318M831 450L829 450L827 454L825 452M825 452L825 452M838 452L834 453L831 450M854 496L853 499L858 503L863 504L862 508L864 514L856 519L853 519L849 514L850 512L844 509L839 515L841 515L841 523L837 523L834 527L834 534L831 536L826 535L824 539L831 543L832 550L836 550L840 555L842 555L843 552L846 552L847 555L848 571L839 574L835 579L835 582M853 624L851 620L851 613L847 611L848 605L844 601L847 598L846 597L851 593L848 591L847 588L841 588L835 582M893 390L889 397L886 397L882 403L868 403L860 414L858 413L858 411L855 414L855 417L849 418L849 421L844 430L835 438L833 442L837 447L836 448L838 449L838 452M854 496L850 494L848 496L840 496L837 494L836 489L830 484L825 485L823 482L827 473L832 472L838 464L843 463L849 457L851 457L852 453L840 458L835 462L835 458L838 452M839 553L839 553M843 353L843 353M881 334L877 325L880 323L881 324L884 321L875 319L873 320L866 313L865 309L864 311L861 311L861 313L858 312L857 313L860 316L855 318L852 322L849 322L844 325L849 333L847 333L846 336L845 335L837 339L837 342L840 346L837 347L838 350L843 353M843 353L843 353M843 353L844 355L846 355M846 355L846 355M846 355L848 352L854 352L855 355L860 356M877 783L871 775L872 768L867 759L868 756L862 757L861 754L859 754L858 750L856 752L854 750L851 751L847 749M847 749L848 746L846 743L850 739L849 738L853 726L857 724L858 721L861 719L858 716L861 712L862 713L864 711L863 706L861 705L862 702L865 697L874 694L873 693L876 690L873 680L879 677L879 675L883 672L886 672L886 674L889 676L892 672L897 672L899 669L903 669L904 666L902 665L905 663M900 635L895 630L886 630L882 624L878 623L878 621L874 623L875 626L869 630L866 630L864 628L870 622L870 620L868 620L866 617L864 617L862 621L855 625L854 623L853 624M858 494L854 496M880 496L878 499L876 499L874 490L872 490L872 488L869 486L860 487L858 494M932 589L926 587L927 585L913 586L912 585L915 582L915 577L913 576L913 574L912 576L910 575L910 572L907 573L907 570L903 568L904 564L907 562L906 561L911 559L911 553L909 553L909 551L912 549L920 553L923 548L922 543L920 543L919 540L916 540L914 541L914 543L912 543L911 546L903 545L900 541L902 540L900 533L897 535L894 532L896 526L898 526L899 519L890 519L890 515L888 515L887 511L886 512L885 510L882 511L881 509L875 509L873 507L874 505L872 504L871 500L868 501L867 499L863 498L861 494L858 494M860 356L863 351L868 352M867 368L868 368M868 377L866 376L867 368M867 368L871 366L869 364L870 360L868 357L868 353M868 377L868 377M887 381L882 381L881 383L878 383L878 381L875 382L873 378L870 379L868 377M868 353L868 352M868 352L868 352M868 352L868 352M870 350L868 352M870 350L876 351L876 346L878 345L876 344L877 338M877 338L867 339L868 344L871 347L870 350M923 301L920 302L914 300L903 300L903 297L901 296L902 293L900 293L898 288L899 286L902 287L902 280L901 277L899 279L897 276L898 275L894 272L896 271L896 268L890 261L883 261L882 266L875 265L873 267M873 267L873 267M877 783L879 785M881 335L877 338M880 496L880 496M925 482L916 482L913 490L911 490L913 492L907 492L904 500L900 501L898 498L899 496L897 496L897 493L891 494L890 497L888 496L886 499L881 495L880 496M881 334L881 335M881 788L882 789M887 338L885 334L881 334M885 345L885 345M885 345L884 343L886 340L891 340L889 338M885 345L888 351L887 352L894 353L893 355M887 338L887 338M888 338L887 338M889 338L888 338M889 338L889 338M893 355L893 355M893 355L892 360L897 362L896 363M900 635L898 638L897 637L896 643L905 653L905 663M900 635L902 632L903 633L912 626L916 619L915 611L923 611L926 609L926 605L923 605L926 601L927 602L929 600L932 589M951 693L949 687L947 687L946 685L942 688L941 687L936 689L932 679L929 680L929 682L923 686L918 684L917 685L915 683L916 682L912 672L913 665L911 663L905 663M923 301L927 296L925 290L925 281L927 277L923 274L929 269L931 269L930 270L935 274L937 273L941 289L943 289L947 282L951 280L951 278L954 275L962 271L964 272L968 270L972 265L977 265L979 267L982 265L985 259L996 258L994 254L999 254L999 256L1003 256L1006 258L1006 256L1013 255L1013 251L1015 249L1023 248L1025 238M937 341L937 339L935 339L935 334L932 333L933 332L931 329L931 325L923 323L921 321L922 320L920 321L914 316L918 311L916 309L922 305L924 302L923 301M925 482L925 482M961 592L959 592L952 599L951 595L949 596L949 594L944 594L939 590L939 588L932 589M951 693L951 694M956 695L958 696M959 386L965 387M986 576L973 572L971 569L968 570L966 572L972 578L966 582L965 588L962 589L961 592M970 601L968 598L966 598L966 596L964 597L963 593L961 592M972 601L976 601M1013 145L1009 139L1009 134L1014 134L1017 131L1023 131L1023 126L1020 126L1021 123L1019 123L1017 126L1014 125L1013 129L1010 130L1007 127L1007 122L1005 122L1005 119L1000 116L996 109L1000 102L1013 94L1015 89L1021 86L1038 68L1039 75L1043 82L1045 78L1043 68L1045 66L1048 55L1051 50L1050 49L1052 46L1057 48L1059 46L1061 39L1060 32L1057 29L1059 30L1059 21L1062 15L1061 13L1067 4L1066 3L1068 3L1067 2L1073 -2L1072 -10L1079 -17L1079 -20L1077 -21L1077 -23L1074 -24L1068 -35L1060 -42L1057 -42L1056 -38L1053 -37L1051 -32L1050 -33L1046 -30L1045 -32L1043 -32L1041 -28L1037 -31L1030 -30L1025 -33L1024 -30L1018 -28L1008 -31L1005 -40L1006 -41L1003 -46L1003 -54L1001 -54L1000 -58L1004 -62L1003 -65L997 -66L996 -70L994 -70L993 -73L989 -73L984 -65L980 -67L978 -72L975 -72L970 -77L968 -77L974 -82L974 -84L977 -86L982 -95L978 -99L979 -101L976 -104M977 601L979 600M982 600L984 599M986 598L989 596M995 595L998 595M1001 595L1004 594M1122 215L1118 216L1114 212L1114 208L1111 205L1111 201L1113 200L1111 198L1104 197L1101 200L1100 189L1102 189L1102 187L1099 184L1099 182L1091 178L1083 181L1077 181L1070 175L1070 169L1064 171L1063 173L1060 172L1057 174L1053 169L1048 172L1041 172L1040 168L1038 168L1037 165L1035 166L1035 164L1032 161L1033 157L1031 155L1033 153L1031 144L1028 143L1027 145L1021 146L1017 146L1015 144L1013 145M1013 145L1010 150L1004 151L1004 161L1001 163L1001 161L999 159L998 160L996 156L994 156L995 158L993 158L993 160L983 153L981 153L982 158L978 161L982 164L985 163L985 167L990 172L990 176L992 177L989 180L988 186L988 193L990 195L989 199L991 200L991 203L993 203L992 210L1001 209L1009 202L1012 202L1012 206L1018 213L1016 217L1020 222L1019 223L1021 228L1021 231L1016 232L1018 236L1020 235L1021 237L1025 238M1025 238L1026 234L1029 235L1028 236L1032 240L1038 242L1038 244L1041 247L1039 249L1042 251L1040 252L1042 254L1052 245L1051 255L1053 255L1054 259L1057 261L1056 265L1059 267L1058 271L1060 270L1062 276L1063 274L1066 276L1061 281L1061 285L1062 290L1064 289L1069 302L1072 303L1071 309L1068 314L1069 313L1071 315M1198 234L1194 236L1192 233L1189 236L1187 235L1187 233L1178 229L1176 219L1177 216L1170 223L1168 221L1168 217L1165 218L1163 221L1154 224L1151 223L1151 231L1144 232L1139 226L1140 222L1137 221L1133 211L1128 215L1122 215M620 472L623 470L620 472"/><path class="leaflet-interactive" stroke="gray" stroke-opacity="1" stroke-width="0.7" stroke-linecap="round" stroke-linejoin="round" fill="none" d="M794 819L796 819L794 816L794 819M809 808L806 808L801 811L800 816L802 818L816 818L815 808L809 808"/><path class="leaflet-interactive" stroke="red" stroke-opacity="1" stroke-width="2" stroke-linecap="round" stroke-linejoin="round" fill="none" d="M-111 380L-113 374L-112 372L-110 372L-110 370L-112 369L-117 359L-115 358L-115 356L-109 356L-107 352L-108 349L-110 348L-110 345L-108 344L-107 340L-103 337L-98 338L-92 332L-87 330L-86 331L-85 330L-88 327L-87 325L-78 327L-71 321L-67 326L-67 332L-62 331L-61 329L-51 329L-45 320L-46 318L-44 316L-44 313L-38 308L-34 310L-20 310L-19 306L-13 304L-10 298L-9 299L0 296L11 288L25 283L29 279L34 279M2 567L-5 562L-3 558L-6 551L1 547L3 549L3 553L7 557L9 555L10 556L15 549L15 546L13 544L14 540L12 540L11 534L4 527L1 520L3 519L2 512L0 510L5 507L9 502L5 501L1 497L-9 494L-12 481L-14 481L-15 477L-13 470L-17 471L-19 469L-21 471L-28 471L-40 467L-42 465L-43 466L-48 461L-47 459L-57 461L-58 456L-62 454L-60 444L-65 436L-69 434L-73 435L-74 429L-78 429L-80 428L-79 427L-86 429L-90 425L-93 427L-95 424L-95 422L-90 419L-86 421M2 567L2 567M610 791L607 789L607 787L597 794L595 794L596 799L590 801L585 805L583 801L579 802L577 809L568 802L566 807L562 802L555 811L550 806L543 803L535 811L532 810L528 812L526 809L521 815L521 819L523 821L522 822L526 826L525 828L527 831L525 832L525 838L527 840L524 843L524 841L522 842L522 840L515 842L513 840L513 832L510 827L509 829L506 829L499 835L497 835L496 833L491 835L488 834L489 830L485 829L484 826L486 822L485 821L474 818L467 818L472 808L470 803L472 803L472 801L476 799L475 795L465 795L461 792L461 787L458 784L460 782L459 779L456 777L456 774L461 769L445 769L441 770L432 776L429 774L434 769L434 766L432 765L434 763L429 761L430 754L433 751L435 751L434 746L436 740L438 742L442 739L442 737L443 738L444 733L449 732L452 726L456 726L453 719L454 718L455 720L457 717L456 714L458 706L456 695L457 688L455 681L450 679L449 684L447 682L443 671L444 668L440 665L441 664L438 661L435 662L433 657L430 657L428 661L429 663L425 665L424 669L427 670L425 674L424 673L419 678L419 676L413 674L405 667L401 667L401 665L394 666L392 663L387 664L380 668L378 673L372 675L367 679L355 682L349 688L345 695L340 698L329 700L319 698L306 700L304 694L304 684L298 685L295 683L295 677L293 675L295 675L288 669L283 675L281 675L275 669L269 670L265 667L258 667L255 665L249 667L240 677L238 680L239 682L237 684L239 688L235 691L230 685L233 675L230 669L227 668L222 671L216 672L216 674L208 673L206 676L195 676L184 670L183 668L180 668L180 670L177 673L173 671L172 667L169 671L170 673L166 673L167 671L164 668L164 666L161 665L161 661L159 664L156 662L150 664L149 662L147 662L149 655L147 653L141 656L136 652L132 652L127 647L125 641L126 639L124 639L124 637L118 637L112 640L109 638L107 632L105 632L104 629L93 626L93 624L89 620L80 617L81 615L78 613L78 610L70 609L68 607L66 609L62 609L62 614L58 619L56 618L54 612L35 603L33 604L29 599L30 598L28 598L29 597L25 594L20 594L19 592L17 592L17 590L13 594L12 592L10 593L7 589L8 588L2 583L2 578L4 577L0 570L2 569L2 567M34 279L34 274L37 273L34 261L36 256L44 252L39 249L44 245L49 245L46 239L48 235L42 224L41 215L39 214L40 209L38 203L40 198L38 195L35 194L34 191L30 192L30 190L28 189L33 184L39 185L42 182L51 182L71 173L74 178L83 178L87 180L89 179L90 175L82 168L82 166L85 154L93 137L98 119M98 119L99 113L102 112L105 115L107 114L108 116L118 121L138 120L143 125L150 118L157 118L160 113L157 86L160 74L162 72L172 72L180 68L185 61L184 60L186 57L184 55L184 52L187 48L195 47L200 50L201 47L208 46L209 54L207 55L209 59L215 63L212 66L213 68L224 73L226 75L226 79L234 83L237 87L248 85L252 92L260 91L261 96L266 97L270 108L269 110L275 121L277 120L279 122L279 126L281 127L282 130L281 134L283 135L278 143L281 149L281 153L274 162L273 168L279 180L284 179L285 181L291 181L292 183L306 183L315 186L321 184L324 184L326 186L335 186L351 194L355 199L357 199L357 201L362 203L365 207L371 208L372 210L381 208L379 217L384 218L393 243L403 252L403 258L417 257L421 255L444 260L474 263L485 260L504 259L527 265L533 273L541 276L547 275L563 284L574 286L589 284L589 290L598 291L600 293L613 283L640 271L651 269L652 267L655 266L666 268L673 266L687 268L690 266L697 267L723 256L737 238L744 236L745 234L749 234L754 228L758 227L758 223L751 216L748 209L745 206L749 199L750 193L756 184L768 184L775 190L796 194L802 189L806 188L815 179L817 173L821 172L826 174L840 172L843 171L848 165L854 164L856 161L856 154L863 144L868 142L881 142L881 138L883 136L882 134L890 136L893 133L896 133L902 129L913 131L914 128L926 134L928 132L936 133L936 131L939 131L939 125L934 114L931 110L928 109L926 104L921 102L921 98L913 94L908 87L899 85L891 86L881 99L870 90L860 92L856 91L852 93L849 97L840 89L839 81L846 78L845 69L866 23M668 833L665 830L657 832L656 830L654 832L652 828L650 829L647 826L645 826L645 823L644 824L642 822L638 822L638 816L637 813L635 813L635 810L641 802L634 798L630 800L627 797L620 799L612 795L610 791M697 961L706 973L710 986M721 1054L719 1069L715 1077M866 23L874 28L883 30L891 34L894 31L897 31L906 23M906 23L910 19L920 18L926 12L926 6L922 5L921 3L924 1L924 -4L928 -8L930 -12L929 -14L936 -24L935 -26L941 -35L940 -37L942 -39L942 -42L951 -50L956 -52L956 -57L959 -61L958 -65L955 -67L957 -75L951 -79L943 -77L941 -79L941 -84L945 -85L959 -102L962 -104L971 -104M1039 -104L1040 -102L1052 -97L1052 -99L1058 -100L1071 -92L1070 -87L1072 -89L1077 -83L1078 -85L1080 -84L1078 -83L1079 -80L1077 -80L1077 -78L1082 -75L1082 -72L1083 -73L1085 -70L1084 -67L1087 -66L1084 -63L1090 -60L1089 -56L1087 -56L1093 -45L1093 -40L1096 -38L1095 -35L1098 -33L1096 -29L1097 -28L1099 -31L1098 -21L1107 -9L1108 7L1114 9L1111 15L1112 24L1115 26L1118 32L1127 34L1135 31L1141 32L1140 35L1146 36L1149 40L1153 40L1156 37L1158 39L1158 42L1162 42L1167 51L1174 57L1184 56L1180 65L1183 70L1186 69L1186 80L1183 83L1186 87M907 1085L910 1082L918 1060M919 966L919 994M941 895L931 912L929 918M984 829L967 850M998 785L1005 756M1186 87L1190 93L1190 96L1192 97L1201 95L1205 98L1213 98L1214 96L1226 96L1229 89L1232 89L1239 82L1249 83L1250 80L1252 80L1253 78L1264 74L1271 72L1277 74L1280 71L1284 72L1275 78L1275 81L1272 86L1277 95L1274 102L1263 109L1264 117L1262 117L1259 132L1257 134L1257 144L1256 147L1252 149L1253 151L1250 155L1251 157L1247 159L1246 167L1240 172L1240 182L1235 185L1214 178L1212 177L1212 175L1208 179L1206 179L1206 183L1196 189L1194 188L1190 192L1194 195L1198 216L1196 219L1196 233L1198 233L1198 237L1196 245L1193 248L1194 252L1191 252L1191 254L1187 253L1178 257L1179 259L1182 259L1183 262L1180 263L1180 261L1175 260L1175 252L1172 252L1171 249L1166 249L1163 257L1164 259L1162 262L1162 267L1158 269L1155 266L1152 268L1148 276L1144 277L1144 279L1140 278L1136 280L1123 280L1125 282L1127 290L1129 290L1130 293L1126 299L1121 297L1116 298L1103 294L1101 288L1098 286L1091 290L1089 298L1079 309L1080 310L1078 313L1071 314L1067 319L1055 324L1041 337M1186 87L1186 87"/><path class="leaflet-interactive" stroke="#333" stroke-opacity="1" stroke-width="0.5" stroke-linecap="round" stroke-linejoin="round" stroke-dasharray="1,6" fill="#fff" fill-opacity="0.2" fill-rule="evenodd" d="M880 323L881 324L884 320L873 320L866 313L865 309L861 311L861 313L858 312L857 313L860 316L856 318L855 317L854 320L850 323L849 322L844 324L844 327L849 332L846 336L844 335L838 339L837 341L840 346L837 348L838 350L845 355L849 352L854 352L857 356L860 357L859 354L860 355L862 352L868 352L871 345L868 344L867 339L877 338L881 335L877 325L880 323z"/><path class="leaflet-interactive" stroke="#333" stroke-opacity="1" stroke-width="0.5" stroke-linecap="round" stroke-linejoin="round" stroke-dasharray="1,6" fill="#fff" fill-opacity="0.2" fill-rule="evenodd" d="M890 358L892 358L894 353L890 352L889 354L887 352L888 350L885 347L884 343L885 340L890 341L890 339L883 333L876 342L876 344L878 345L876 346L876 351L869 350L868 352L870 367L867 368L866 376L869 377L870 379L873 379L875 382L877 380L878 383L881 383L882 381L887 381L889 379L887 375L892 374L893 371L891 368L897 362L892 359L884 359L886 357L888 358zM891 359L892 358L890 359z"/><path class="leaflet-interactive" stroke="#333" stroke-opacity="1" stroke-width="0.5" stroke-linecap="round" stroke-linejoin="round" stroke-dasharray="1,6" fill="#fff" fill-opacity="0.2" fill-rule="evenodd" d="M883 321L881 324L880 323L878 325L878 329L881 334L885 333L887 337L890 338L890 340L888 341L885 340L884 343L885 348L888 350L887 353L894 353L891 359L896 361L900 369L903 369L906 372L909 371L907 367L909 367L908 366L917 365L916 366L920 363L925 358L924 355L926 348L931 343L937 341L937 339L935 338L935 334L931 329L931 325L925 325L921 321L922 320L919 320L914 316L918 311L916 309L919 308L924 302L914 300L903 300L903 297L901 296L902 295L898 288L899 286L902 287L903 285L901 282L902 278L901 277L898 279L898 275L895 273L896 268L890 261L883 261L881 264L882 266L873 266L870 269L871 273L868 274L870 277L868 281L867 280L866 282L860 282L858 280L854 284L852 284L852 287L850 287L848 282L846 282L835 289L833 293L829 291L824 292L825 281L822 275L819 277L817 276L815 278L816 281L812 281L809 286L809 295L806 294L801 298L803 299L802 301L805 303L801 307L806 317L807 316L806 317L811 323L811 328L816 331L806 335L805 339L805 337L802 340L805 341L805 343L813 344L813 351L816 353L816 356L814 365L812 366L813 367L808 368L805 366L800 370L799 373L801 375L797 380L795 380L794 383L794 391L800 394L805 406L804 407L807 408L802 421L799 425L799 431L797 431L797 434L792 436L792 438L794 438L794 441L798 446L803 446L809 449L810 448L818 453L824 452L827 454L830 450L832 450L834 453L837 452L838 449L835 447L833 442L836 436L842 433L849 421L849 418L856 416L855 415L857 411L860 414L868 403L882 403L884 399L888 397L894 389L889 387L887 381L878 383L877 380L875 382L874 379L871 379L866 376L867 368L870 367L870 357L868 356L868 352L862 352L860 355L859 354L860 357L854 352L849 352L845 355L842 352L840 352L837 347L840 346L837 339L846 336L849 332L844 327L844 325L852 321L855 317L860 317L857 313L858 312L861 313L860 312L865 309L866 313L873 320L884 320L883 321zM877 338L867 339L867 344L871 345L870 350L871 349L872 351L875 351L877 347L877 338zM890 359L884 359L889 359zM915 366L915 367z"/><path class="leaflet-interactive" stroke="#333" stroke-opacity="1" stroke-width="0.5" stroke-linecap="round" stroke-linejoin="round" stroke-dasharray="1,6" fill="#fff" fill-opacity="0.2" fill-rule="evenodd" d="M722 495L729 495L730 493L733 494L734 491L739 491L739 489L747 489L751 486L751 484L757 482L760 483L760 476L766 477L765 478L779 477L781 474L784 475L786 471L788 472L788 470L789 471L793 469L794 466L796 466L795 461L797 455L796 452L798 452L796 451L798 446L794 442L795 440L792 438L794 435L797 434L798 431L799 432L799 423L807 411L807 408L804 407L805 406L800 395L794 392L793 388L795 386L795 380L797 380L801 375L799 374L799 371L804 366L807 368L812 368L812 366L815 363L814 362L817 353L813 351L813 345L806 343L802 340L804 337L805 339L806 338L806 335L816 331L814 329L811 329L811 324L807 318L805 322L806 325L801 327L799 325L794 330L790 331L787 328L783 329L779 331L776 335L769 331L764 335L756 352L748 350L746 351L746 355L739 358L739 360L740 359L740 361L742 361L738 369L735 371L736 374L733 381L734 384L728 390L726 390L725 395L725 399L730 406L729 407L731 408L731 411L727 417L729 418L727 422L722 428L723 437L722 436L725 442L723 451L727 466L718 487L718 492L720 495z"/><path class="leaflet-interactive" stroke="#333" stroke-opacity="1" stroke-width="0.5" stroke-linecap="round" stroke-linejoin="round" stroke-dasharray="1,6" fill="#fff" fill-opacity="0.2" fill-rule="evenodd" d="M421 256L437 291L431 296L439 307L448 313L448 323L454 320L453 318L455 317L458 322L458 319L462 317L464 320L466 319L467 315L476 315L478 312L487 313L491 319L491 322L489 324L489 332L482 340L475 344L473 343L482 344L483 347L491 350L493 352L493 355L496 356L497 358L505 358L504 368L508 371L514 369L513 371L516 374L515 376L521 378L522 380L526 380L533 373L527 367L541 362L545 365L554 367L564 359L573 356L579 357L578 361L581 367L581 371L573 380L563 387L566 394L562 396L562 398L563 403L568 405L581 416L596 411L600 411L607 407L613 408L613 405L617 405L617 393L619 390L618 386L620 379L619 378L622 374L621 372L624 370L625 365L629 365L628 362L634 362L636 359L640 359L640 364L644 369L644 372L638 378L636 388L633 390L640 394L649 394L655 399L655 401L656 400L660 403L667 405L667 407L671 410L686 408L685 406L687 397L689 401L692 397L689 391L692 386L697 381L699 381L698 380L700 376L705 374L705 370L710 366L711 367L712 364L710 363L711 362L712 364L718 362L716 358L717 356L722 361L724 359L727 362L729 362L733 355L738 353L739 354L737 357L739 359L740 357L744 357L746 355L745 354L747 350L756 352L765 334L769 331L775 335L778 334L779 331L782 329L787 328L789 331L799 326L801 327L803 325L806 325L805 322L807 316L806 317L805 313L800 307L805 303L803 303L803 299L801 298L805 294L809 295L809 286L812 282L815 281L817 276L824 277L826 285L824 286L824 292L829 291L832 293L835 292L834 289L846 282L848 282L850 287L852 287L852 285L857 280L860 282L866 282L867 280L868 281L870 279L868 274L871 273L870 269L873 266L882 266L883 261L890 261L896 268L895 269L897 271L895 272L898 275L898 279L900 279L901 277L902 278L902 287L898 287L904 301L912 301L914 299L915 301L920 302L925 301L927 296L925 290L925 281L927 277L924 274L924 272L929 269L931 269L930 271L933 273L937 273L937 277L942 287L941 288L943 289L954 275L960 272L961 273L962 271L964 273L972 265L977 264L979 267L984 263L984 261L987 258L990 259L991 257L992 259L994 259L997 257L994 254L999 254L999 256L1003 256L1005 258L1007 256L1008 257L1014 254L1013 252L1015 249L1022 248L1025 238L1023 238L1020 235L1018 236L1018 234L1016 234L1017 231L1021 231L1019 223L1020 222L1016 215L1018 213L1012 206L1012 202L1003 206L1001 209L993 210L993 203L991 203L989 199L990 193L988 193L987 189L989 181L992 177L990 176L990 172L986 169L985 163L982 164L978 161L981 160L981 153L983 153L993 160L994 156L996 156L998 160L999 159L1003 163L1003 159L1005 156L1004 151L1010 150L1013 145L1009 139L1009 134L1014 134L1017 131L1023 131L1023 125L1022 124L1022 126L1020 126L1021 122L1019 123L1016 120L1016 122L1018 122L1017 126L1014 125L1013 129L1010 130L1007 127L1007 122L1004 121L1006 118L1000 116L996 110L1000 102L1013 94L1016 88L1021 86L1038 68L1039 75L1042 81L1041 83L1043 82L1045 78L1043 71L1047 60L1046 59L1051 50L1050 48L1052 46L1055 46L1057 48L1060 44L1059 43L1061 36L1059 33L1060 34L1060 32L1057 29L1059 30L1060 27L1060 24L1058 23L1060 23L1059 19L1061 17L1060 16L1062 16L1060 14L1067 6L1066 3L1068 3L1067 2L1069 2L1073 -3L1072 -9L1079 -17L1079 -20L1064 -39L1061 -42L1059 -41L1057 -43L1056 -38L1053 -36L1052 -33L1046 -30L1045 -32L1041 -31L1041 -29L1037 -31L1030 -30L1025 -33L1024 -31L1018 -28L1009 -30L1006 -35L1006 -41L1003 -46L1003 -54L1000 -58L1000 -60L1002 -60L1004 -64L997 -66L996 -70L994 -70L993 -73L991 -72L989 -74L985 -66L981 -66L978 -72L968 -77L978 -87L977 -88L979 -89L982 -95L981 -98L978 -100L979 -102L977 -102L977 -104L962 -104L956 -99L955 -96L953 -96L953 -94L945 -85L941 -84L942 -77L951 -79L956 -75L957 -73L955 -68L959 -61L956 -57L956 -52L953 -52L945 -43L942 -42L940 -36L941 -35L938 -29L936 -29L937 -26L935 -26L936 -25L929 -14L929 -10L924 -4L924 0L921 3L927 6L926 11L923 15L922 14L920 18L910 19L897 31L892 32L891 34L883 30L874 28L866 23L859 37L851 59L845 69L846 78L839 81L840 89L848 97L856 91L860 92L870 90L881 99L891 86L901 85L908 87L913 94L921 98L921 102L926 104L925 106L934 114L939 124L939 130L936 133L933 134L928 132L926 134L914 128L913 130L908 131L902 129L896 133L893 133L891 136L882 134L883 136L881 138L881 142L870 141L863 144L856 154L856 161L854 164L848 165L843 171L840 172L827 174L821 172L818 173L815 179L806 188L802 189L796 194L775 190L769 184L756 184L753 187L749 195L748 202L745 206L748 209L751 216L758 223L758 226L754 228L749 234L737 238L723 256L697 267L652 267L651 269L640 271L613 283L600 293L598 291L589 290L589 284L578 286L564 284L547 275L541 276L533 273L526 264L521 264L505 259L493 259L474 263L444 260L424 256z"/><path class="leaflet-interactive" stroke="#333" stroke-opacity="1" stroke-width="0.5" stroke-linecap="round" stroke-linejoin="round" stroke-dasharray="1,6" fill="#fff" fill-opacity="0.2" fill-rule="evenodd" d="M1021 347L1034 346L1035 348L1037 342L1040 341L1039 339L1043 334L1048 331L1052 326L1053 327L1055 324L1070 317L1069 316L1071 314L1068 314L1068 312L1071 309L1072 303L1069 302L1065 294L1065 290L1062 290L1061 285L1061 282L1066 276L1063 274L1063 276L1061 276L1062 273L1060 270L1058 271L1059 268L1056 264L1057 261L1055 261L1054 255L1051 255L1052 245L1050 245L1047 248L1047 250L1042 254L1040 253L1042 251L1039 249L1041 247L1038 244L1038 242L1029 238L1027 234L1025 236L1025 241L1022 248L1013 251L1012 255L1006 256L1005 258L1003 256L999 256L999 254L994 254L997 257L994 259L992 259L991 257L991 259L985 259L984 263L979 267L977 265L973 265L964 273L962 271L951 277L951 280L947 282L943 289L941 289L942 287L937 277L937 273L933 273L929 268L924 272L923 274L927 277L925 281L925 290L927 295L925 301L923 301L924 302L921 306L916 309L918 311L916 311L914 316L918 320L921 320L925 325L931 324L931 329L933 332L932 333L934 334L937 340L939 341L939 339L951 335L953 333L954 328L967 314L973 316L973 314L979 316L981 314L984 316L985 319L988 321L990 320L989 322L992 325L992 327L990 330L989 329L989 331L987 331L987 333L985 333L986 337L985 336L981 342L974 346L974 350L969 352L970 359L973 359L975 361L980 359L977 362L979 366L978 368L977 365L975 369L972 368L970 371L965 372L967 378L969 376L975 375L976 373L979 374L980 372L978 371L981 369L982 371L984 371L983 369L988 368L987 367L990 365L989 364L992 362L992 360L998 358L999 356L1006 352L1021 347zM1001 361L998 361L1002 362L1001 361zM993 365L995 365L993 365zM1002 363L1000 363L1002 363zM1003 369L1003 369zM1009 354L1008 355L1010 354zM998 363L999 363zM959 326L960 325L958 326zM1011 357L1010 356zM1013 369L1014 368L1012 367L1012 369zM1025 348L1025 347z"/><path class="leaflet-interactive" stroke="#333" stroke-opacity="1" stroke-width="0.5" stroke-linecap="round" stroke-linejoin="round" stroke-dasharray="1,6" fill="#fff" fill-opacity="0.2" fill-rule="evenodd" d="M1159 267L1163 266L1162 262L1164 259L1163 258L1166 249L1171 249L1171 251L1174 252L1174 257L1178 262L1180 262L1181 267L1183 267L1181 264L1183 261L1182 259L1179 259L1177 257L1186 253L1191 254L1192 251L1194 252L1193 248L1196 245L1198 233L1194 236L1192 233L1189 236L1187 233L1178 229L1176 223L1177 216L1170 223L1168 221L1168 217L1166 217L1162 222L1156 222L1153 224L1151 223L1151 231L1144 232L1141 229L1140 222L1137 221L1136 216L1133 213L1134 207L1131 201L1127 207L1124 206L1125 214L1121 216L1117 215L1116 211L1113 211L1114 209L1111 205L1111 202L1113 200L1106 197L1104 197L1101 200L1100 190L1102 189L1099 182L1095 182L1090 178L1081 182L1078 180L1077 181L1071 175L1070 169L1066 171L1065 170L1063 173L1060 172L1057 174L1053 169L1052 172L1041 172L1037 165L1035 166L1035 164L1032 161L1033 157L1031 153L1033 153L1031 145L1029 143L1027 145L1022 146L1017 146L1015 144L1012 146L1010 150L1004 151L1004 161L1001 163L1001 161L999 159L998 160L996 156L994 156L995 158L993 160L984 153L982 153L982 157L979 161L982 164L985 163L985 167L990 172L990 176L992 177L989 180L988 185L988 192L990 193L989 198L991 200L991 203L993 203L992 210L1001 209L1003 206L1012 202L1012 206L1018 213L1016 217L1018 218L1017 219L1020 222L1019 223L1021 227L1021 231L1017 231L1016 234L1023 238L1025 238L1027 234L1032 240L1036 242L1037 241L1041 247L1039 249L1042 250L1040 252L1042 253L1045 252L1050 245L1052 245L1051 255L1053 255L1054 259L1057 261L1056 264L1059 267L1058 271L1062 273L1061 276L1063 276L1063 274L1066 276L1061 281L1061 285L1062 289L1065 290L1065 294L1072 306L1068 314L1075 314L1077 312L1078 313L1080 310L1079 309L1089 299L1090 292L1094 289L1093 288L1095 289L1098 286L1103 292L1103 294L1107 295L1106 296L1112 296L1114 298L1127 298L1130 294L1130 291L1126 289L1123 280L1136 280L1140 278L1143 279L1150 273L1151 269L1154 267L1153 266L1158 268z"/><path class="leaflet-interactive" stroke="#333" stroke-opacity="1" stroke-width="0.5" stroke-linecap="round" stroke-linejoin="round" stroke-dasharray="1,6" fill="#fff" fill-opacity="0.2" fill-rule="evenodd" d="M1022 146L1027 145L1028 143L1030 145L1031 144L1033 153L1031 153L1033 157L1032 161L1035 164L1035 166L1037 165L1037 167L1040 168L1041 172L1052 172L1053 169L1057 174L1060 172L1063 173L1064 170L1066 171L1069 169L1071 170L1070 175L1075 180L1076 179L1081 182L1089 178L1099 182L1102 188L1100 189L1101 199L1104 197L1113 199L1111 205L1114 209L1113 211L1116 211L1118 215L1120 216L1125 213L1124 207L1127 207L1131 201L1134 206L1133 213L1135 214L1137 221L1140 222L1139 226L1143 232L1146 233L1151 231L1151 223L1152 224L1156 222L1162 222L1165 217L1169 219L1168 221L1170 223L1177 216L1176 223L1178 229L1183 230L1182 231L1189 236L1192 233L1194 236L1198 234L1196 233L1196 224L1198 216L1194 195L1190 191L1193 190L1193 188L1196 189L1199 186L1202 187L1207 182L1206 179L1208 179L1211 175L1214 178L1235 185L1239 182L1239 175L1241 169L1247 165L1247 159L1251 157L1250 155L1252 155L1253 152L1252 149L1257 145L1257 134L1260 130L1262 118L1265 116L1263 109L1266 106L1272 104L1277 96L1272 87L1275 78L1284 73L1284 71L1280 71L1278 74L1271 72L1268 74L1261 75L1250 80L1249 83L1239 82L1232 89L1229 89L1226 96L1220 95L1217 97L1214 96L1213 98L1204 98L1204 96L1201 95L1192 97L1189 89L1183 83L1187 77L1185 73L1186 70L1183 70L1180 66L1184 56L1173 56L1166 50L1162 42L1158 42L1158 39L1156 37L1154 37L1154 40L1150 38L1149 40L1147 40L1146 36L1141 36L1140 32L1120 32L1113 25L1111 15L1114 9L1108 7L1107 -10L1098 -21L1098 -26L1100 -30L1097 -30L1098 -27L1096 -29L1098 -33L1095 -35L1096 -38L1093 -40L1094 -44L1087 -55L1090 -59L1089 -61L1084 -63L1085 -65L1087 -65L1085 -67L1085 -70L1083 -73L1082 -72L1082 -75L1076 -79L1079 -80L1078 -83L1080 -83L1078 -85L1077 -83L1073 -89L1070 -87L1071 -92L1068 -96L1067 -94L1065 -97L1059 -100L1052 -99L1052 -97L1048 -98L1048 -100L1043 -100L1039 -104L976 -104L977 -102L979 -102L982 -95L977 -88L978 -87L968 -77L970 -77L975 -72L979 -71L978 -70L981 -66L984 -65L989 -74L991 -72L993 -73L997 -66L1004 -64L1004 -62L1000 -60L1000 -58L1003 -52L1003 -46L1006 -41L1006 -35L1009 -30L1018 -28L1024 -30L1025 -33L1030 -29L1036 -31L1041 -28L1042 -32L1046 -30L1050 -33L1051 -32L1057 -42L1060 -42L1069 -33L1074 -24L1076 -22L1077 -23L1079 -20L1079 -17L1072 -9L1073 -2L1067 2L1068 3L1066 3L1067 5L1065 7L1065 10L1063 10L1060 14L1062 16L1060 16L1060 22L1058 23L1060 24L1060 27L1059 29L1057 29L1061 36L1059 43L1060 44L1057 48L1052 46L1050 48L1051 50L1048 58L1046 59L1047 60L1044 68L1044 82L1041 84L1042 82L1038 68L1021 86L1016 88L1013 94L1000 102L996 109L998 114L1005 118L1004 122L1007 122L1007 127L1010 130L1013 129L1014 126L1017 126L1018 123L1017 121L1016 122L1016 120L1019 123L1020 122L1020 125L1023 125L1023 131L1017 131L1014 134L1009 134L1009 139L1013 145L1015 144L1017 146L1022 146z"/><path class="leaflet-interactive" stroke="#333" stroke-opacity="1" stroke-width="0.5" stroke-linecap="round" stroke-linejoin="round" stroke-dasharray="1,6" fill="#fff" fill-opacity="0.2" fill-rule="evenodd" d="M961 592L963 592L963 597L966 596L966 598L972 601L975 598L985 598L986 596L986 593L980 584L971 579L967 580L967 585L965 585L965 588L961 590zM986 576L973 572L971 569L969 569L966 572L972 578L973 577L982 581L986 579zM982 584L975 579L981 584zM982 583L983 585L988 586L989 584L981 582zM978 581L977 580zM985 587L986 588L985 586zM984 586L984 586z"/><path class="leaflet-interactive" stroke="#333" stroke-opacity="1" stroke-width="0.5" stroke-linecap="round" stroke-linejoin="round" stroke-dasharray="1,6" fill="#fff" fill-opacity="0.2" fill-rule="evenodd" d="M879 496L879 498L876 499L875 494L871 489L872 488L868 485L859 488L858 494L867 499L868 501L872 501L872 504L874 505L873 507L877 510L881 509L882 511L884 510L885 512L888 512L889 515L890 514L890 519L899 519L898 526L896 525L894 532L896 535L899 534L902 545L912 546L912 543L914 543L914 541L916 540L918 540L920 544L922 543L923 549L920 554L919 552L912 549L908 551L909 553L911 553L911 559L904 564L903 568L907 570L907 573L910 572L910 575L912 576L912 574L913 576L915 576L915 582L912 582L913 586L926 586L926 584L927 588L930 588L932 590L933 588L938 588L943 594L951 595L952 599L954 596L957 595L956 594L958 592L960 593L961 590L965 588L965 586L967 585L967 580L972 578L967 572L969 569L971 569L973 572L977 574L986 576L983 567L974 561L975 560L973 554L964 549L962 546L963 543L959 532L960 531L954 521L948 504L933 496L929 493L930 491L925 490L923 487L923 482L925 483L924 481L917 483L916 482L913 487L913 492L906 493L904 500L899 501L899 496L897 496L897 493L890 493L891 497L888 496L886 499L883 498L881 495L879 496z"/><path class="leaflet-interactive" stroke="#333" stroke-opacity="1" stroke-width="0.5" stroke-linecap="round" stroke-linejoin="round" stroke-dasharray="1,6" fill="#fff" fill-opacity="0.2" fill-rule="evenodd" d="M905 663L906 665L912 663L912 672L914 673L916 685L921 684L921 686L923 686L929 683L930 679L932 679L936 688L935 689L947 685L951 693L953 693L953 690L957 684L955 682L961 674L966 676L968 675L963 672L965 668L966 667L967 670L969 670L975 663L977 665L978 664L979 660L976 654L981 649L980 644L977 641L981 641L983 643L984 642L985 644L986 631L985 628L983 628L987 623L989 623L989 621L986 622L986 620L984 621L979 619L975 612L965 604L970 601L968 598L966 598L966 596L963 597L963 592L959 592L952 599L951 595L944 594L939 590L939 588L934 588L932 589L933 590L931 593L931 597L928 602L927 601L923 603L926 609L923 611L919 611L917 609L915 611L916 620L914 621L912 626L903 633L902 632L902 634L898 638L897 637L897 645L899 645L903 650L906 662zM990 619L994 620L993 617L985 614L987 619L989 619zM991 614L990 615zM991 626L992 627L991 626zM996 599L998 600L996 599zM990 610L987 611L991 613L992 611L990 610zM993 612L996 613L994 612zM987 640L986 641L987 640zM995 622L996 623L995 620L994 622zM996 608L993 606L994 608zM982 651L983 650zM992 623L993 625L993 623zM981 643L982 644L982 642zM968 681L968 680zM985 598L985 601L988 603L985 598zM984 659L983 658zM990 628L991 627L989 624L987 626L989 628zM997 620L996 621L997 620zM999 602L999 602zM983 660L984 659zM988 614L987 615zM995 620L996 618L995 619zM983 619L985 619L983 616L983 619zM965 684L966 685L965 684zM985 640L986 640zM987 625L987 626zM985 616L985 616zM985 611L986 610L984 611zM991 620L990 620zM993 626L992 626zM966 676L966 676zM1003 615L1004 615zM992 612L993 612zM993 622L993 622zM1004 601L1003 600zM966 672L964 672zM968 672L969 671L967 671zM997 620L997 620zM1005 600L1005 600zM991 620L992 620zM987 620L988 620zM964 671L965 671zM997 621L997 621zM990 620L990 620z"/><path class="leaflet-interactive" stroke="#333" stroke-opacity="1" stroke-width="0.5" stroke-linecap="round" stroke-linejoin="round" stroke-dasharray="1,6" fill="#fff" fill-opacity="0.2" fill-rule="evenodd" d="M863 511L864 514L856 519L853 519L849 514L850 512L844 509L840 512L839 515L841 515L841 523L837 523L836 525L835 524L834 535L825 536L824 539L830 542L832 545L831 550L836 550L841 555L843 552L844 553L847 550L846 552L848 560L848 571L844 571L839 574L835 579L835 582L840 589L842 587L845 589L847 588L847 590L851 592L851 594L849 594L844 601L848 608L847 611L851 613L851 620L853 621L853 624L862 622L863 618L866 617L870 622L865 626L866 627L864 628L866 630L869 630L875 626L876 625L874 623L878 621L878 623L882 623L885 630L895 630L900 635L902 632L903 633L908 628L910 628L916 620L915 611L917 609L919 611L927 609L926 605L923 604L926 601L927 602L931 597L932 590L926 587L926 584L926 586L913 586L912 582L914 582L915 577L913 576L913 574L912 576L910 575L911 573L908 573L907 570L903 568L904 564L907 562L906 561L911 559L911 553L909 553L908 550L914 549L920 554L923 550L922 543L920 544L918 540L914 540L914 543L912 543L911 546L904 546L900 541L900 534L899 533L896 535L894 533L896 526L898 526L899 519L890 519L890 515L887 511L885 512L885 510L882 511L881 509L875 509L873 507L874 505L870 500L868 501L866 498L863 498L859 494L857 494L853 499L859 504L862 504L863 511zM915 579L915 579zM866 626L866 627zM838 553L839 553z"/><path class="leaflet-interactive" stroke="#333" stroke-opacity="1" stroke-width="0.5" stroke-linecap="round" stroke-linejoin="round" stroke-dasharray="1,6" fill="#fff" fill-opacity="0.2" fill-rule="evenodd" d="M918 748L918 746L917 747L915 745L918 743L916 741L917 740L918 742L920 742L919 745L921 744L921 747L922 743L920 742L924 743L927 741L921 737L923 735L926 737L926 735L928 735L928 737L929 736L929 738L931 737L932 739L933 736L938 736L936 734L938 734L936 730L933 735L929 730L932 730L932 725L934 724L932 719L933 715L940 713L938 713L935 706L931 706L933 703L934 705L938 705L942 702L937 707L937 709L944 706L944 703L942 701L946 699L947 694L951 693L947 685L942 688L941 687L935 689L936 688L934 686L932 679L929 680L929 683L923 686L921 686L921 684L917 685L915 683L916 682L914 673L912 672L912 664L905 663L902 665L903 668L892 672L889 676L884 671L882 674L879 674L879 677L877 679L872 680L876 689L873 693L874 694L865 697L862 701L861 704L863 705L862 707L864 710L862 713L861 712L859 714L858 716L861 719L858 721L857 724L853 726L854 728L851 731L849 738L850 739L846 742L848 745L847 749L851 751L854 750L856 752L859 750L858 752L862 757L867 755L867 758L872 768L872 776L874 780L877 781L877 783L881 783L885 779L886 780L888 775L890 775L899 765L897 762L898 758L904 759L903 758L907 757L909 759L911 758L910 755L911 756L913 754L910 752L918 750L916 749L918 748zM905 759L904 761L902 760L902 762L906 762L905 760zM929 742L931 742L928 742zM931 731L932 730L931 731zM940 717L940 716zM900 762L900 761zM939 704L940 704zM900 760L898 758L897 759L898 762L900 761zM939 719L939 718zM933 719L932 718zM941 710L941 709zM933 731L934 730zM935 706L936 706zM944 708L943 707zM949 699L950 698L948 698zM944 702L944 702zM933 706L935 705L933 705z"/><path class="leaflet-interactive" stroke="#333" stroke-opacity="1" stroke-width="0.5" stroke-linecap="round" stroke-linejoin="round" stroke-dasharray="1,6" fill="#fff" fill-opacity="0.2" fill-rule="evenodd" d="M900 635L896 630L889 631L887 629L884 629L883 625L877 621L875 621L874 623L876 625L875 626L867 630L864 628L870 622L870 620L864 617L862 621L856 624L854 623L849 626L843 623L839 623L838 626L833 629L829 627L830 632L827 630L824 633L825 632L825 634L815 637L811 635L810 639L806 640L803 643L804 647L808 649L806 656L809 659L808 660L810 661L810 663L807 666L804 666L805 669L798 673L799 676L795 682L795 687L801 687L801 691L799 693L802 697L800 701L801 705L807 707L805 715L803 717L806 718L808 716L810 718L805 720L804 722L805 725L802 729L804 734L803 736L805 740L811 740L816 737L818 737L821 740L821 743L814 748L810 755L808 755L813 760L816 758L824 758L825 756L834 753L835 754L836 752L840 757L842 757L843 759L845 758L844 752L846 749L846 751L848 750L848 746L846 743L850 739L849 738L851 729L861 719L858 716L864 710L862 708L863 705L861 705L863 699L874 694L873 693L876 690L875 683L872 680L875 680L884 671L889 676L892 672L897 672L899 669L900 670L903 668L904 666L902 665L906 662L905 653L901 647L897 645L896 642L897 637L898 638L900 636z"/><path class="leaflet-interactive" stroke="#333" stroke-opacity="1" stroke-width="0.5" stroke-linecap="round" stroke-linejoin="round" stroke-dasharray="1,6" fill="#fff" fill-opacity="0.2" fill-rule="evenodd" d="M858 494L860 487L868 485L872 488L871 489L874 492L876 499L878 499L878 497L881 495L885 499L888 496L891 497L890 493L897 493L897 496L899 496L899 501L904 500L905 495L908 492L911 493L913 491L912 490L915 483L924 480L925 482L928 480L927 477L929 475L930 476L933 468L937 466L938 467L940 463L941 464L942 459L945 457L945 459L948 456L945 456L946 455L943 452L945 450L949 450L947 455L957 452L956 447L958 447L956 445L960 443L961 446L963 440L961 440L960 438L964 440L967 437L974 435L976 432L974 434L976 435L978 435L978 433L985 429L987 431L989 429L990 432L996 432L996 430L997 431L999 428L999 426L997 427L997 424L1000 422L999 419L1001 416L1002 417L1001 415L994 416L992 414L991 415L989 413L990 412L984 414L978 413L976 415L971 409L972 410L968 411L967 408L961 404L957 404L949 408L946 408L946 412L937 417L938 421L935 424L926 424L925 422L922 420L921 421L918 418L917 413L918 410L924 408L925 403L921 403L917 396L914 394L909 395L909 397L907 397L905 395L900 395L899 393L893 391L888 397L884 399L882 403L868 403L860 414L858 413L858 411L856 412L855 417L849 418L849 421L844 430L835 438L833 442L835 447L837 447L836 448L838 449L837 455L835 457L835 462L838 459L845 457L851 453L851 457L839 463L835 470L830 472L823 480L825 485L829 484L832 485L833 488L837 489L837 494L841 496L855 496L857 494zM957 400L958 401zM956 399L957 399zM963 444L962 444zM958 395L958 393zM962 389L961 388zM944 462L945 462zM955 400L954 400zM959 391L959 390zM975 411L975 411zM974 411L975 411zM975 411L975 411zM838 459L838 459z"/><path class="leaflet-interactive" stroke="#333" stroke-opacity="1" stroke-width="0.5" stroke-linecap="round" stroke-linejoin="round" stroke-dasharray="1,6" fill="#fff" fill-opacity="0.2" fill-rule="evenodd" d="M775 556L781 556L782 554L784 556L786 554L790 558L796 556L797 554L799 556L798 563L800 569L802 569L804 572L809 570L814 573L817 572L817 577L823 580L827 580L827 578L829 579L830 576L832 578L832 581L835 582L835 579L838 576L838 574L848 571L848 561L846 552L848 550L845 553L844 552L842 555L839 554L836 551L831 550L832 545L830 542L824 539L826 535L834 535L834 526L840 523L841 515L839 515L842 510L844 509L846 511L849 511L851 517L855 519L863 514L864 515L862 508L863 504L858 504L853 499L854 496L852 495L849 494L846 496L839 496L837 494L837 489L832 487L832 485L825 485L823 483L823 480L828 473L834 470L839 463L843 463L845 460L851 457L852 453L840 458L835 462L835 457L837 456L838 452L837 451L834 453L832 450L830 450L827 454L825 454L825 452L821 451L818 453L810 448L809 449L804 446L799 446L796 451L796 466L794 466L791 470L788 470L788 472L787 471L784 475L781 474L780 477L776 478L765 478L766 477L760 476L760 482L754 482L753 484L751 484L749 488L741 490L739 489L739 491L734 491L733 494L730 493L729 495L721 496L722 500L725 502L723 503L723 505L727 507L726 511L727 510L728 512L726 515L732 518L732 520L736 523L736 532L740 536L739 538L742 539L741 541L745 543L745 545L747 545L746 546L749 550L752 549L759 554L760 553L762 556L773 556zM799 558L799 558z"/><path class="leaflet-interactive" stroke="#333" stroke-opacity="1" stroke-width="0.5" stroke-linecap="round" stroke-linejoin="round" stroke-dasharray="1,6" fill="#fff" fill-opacity="0.2" fill-rule="evenodd" d="M737 534L736 532L732 533L729 536L726 532L724 534L714 534L711 532L704 531L700 535L706 536L708 537L708 541L716 543L718 549L714 551L705 550L702 554L705 563L704 573L707 574L707 578L716 582L717 595L715 598L711 595L709 596L698 606L699 604L697 602L694 605L693 602L691 602L687 606L685 606L683 603L681 606L677 606L680 612L680 619L679 622L676 623L679 626L681 622L683 623L683 627L688 629L687 633L689 634L689 636L691 636L692 634L694 641L696 642L696 639L700 631L701 632L702 629L707 629L706 628L710 625L716 624L721 628L728 625L724 621L726 619L724 618L729 618L732 615L746 621L754 621L766 630L765 631L767 631L769 628L773 630L779 624L780 627L782 625L779 629L780 633L782 631L783 634L794 623L794 627L797 628L798 630L796 631L799 633L795 638L797 640L796 641L802 644L806 640L810 639L811 635L815 637L819 635L825 635L825 632L824 634L827 630L829 630L830 632L829 627L835 628L838 626L839 623L843 623L848 626L852 624L852 616L850 612L847 611L848 605L844 601L848 595L851 594L851 592L848 591L847 588L846 589L843 587L840 589L837 583L833 581L831 576L829 577L829 579L827 578L827 580L822 580L819 577L817 578L817 572L814 573L809 570L804 572L802 569L801 570L798 563L799 556L797 554L791 558L789 558L786 554L784 556L782 554L776 556L769 555L766 557L763 555L762 556L752 549L749 550L746 546L747 545L745 545L742 539L739 538L740 537L738 534zM693 604L693 604zM737 533L737 534zM775 556L775 556zM779 624L780 625z"/><path class="leaflet-interactive" stroke="#333" stroke-opacity="1" stroke-width="0.5" stroke-linecap="round" stroke-linejoin="round" stroke-dasharray="1,6" fill="#fff" fill-opacity="0.2" fill-rule="evenodd" d="M759 754L763 749L761 748L764 742L767 742L768 744L769 742L775 745L776 750L779 750L782 748L782 742L778 739L780 740L787 734L792 738L800 739L804 732L802 729L805 725L805 720L810 718L808 716L803 718L807 707L801 705L800 701L802 697L799 693L801 691L801 687L795 687L795 680L799 676L798 673L800 671L801 672L805 670L804 667L810 661L809 658L806 656L808 649L806 649L806 647L805 648L803 644L801 644L800 642L798 643L796 641L797 640L795 638L799 633L796 631L798 630L796 627L794 627L794 623L783 634L783 631L780 633L779 629L782 625L780 627L779 624L773 630L769 628L767 631L765 631L766 630L761 628L754 621L748 622L741 618L734 617L732 615L729 618L724 618L726 619L724 621L728 625L725 627L724 626L723 628L721 628L716 624L708 625L708 627L706 628L707 629L703 629L698 635L698 638L696 639L696 643L698 644L696 646L697 652L695 654L698 656L696 661L698 664L697 670L699 670L697 672L701 681L697 684L697 686L695 685L693 688L691 688L692 689L688 691L688 694L686 694L688 696L693 693L693 695L696 693L700 693L701 695L702 694L703 698L700 699L702 703L704 703L697 705L700 708L697 713L698 715L701 714L701 721L707 722L706 725L709 724L708 722L711 720L712 717L715 719L715 721L721 723L727 713L730 714L730 716L734 715L735 712L741 714L743 716L740 723L743 726L744 724L747 726L743 729L744 732L742 737L736 743L735 748L738 749L738 746L742 743L747 747L746 756L748 756L752 752L758 753zM702 703L702 703z"/><path class="leaflet-interactive" stroke="#333" stroke-opacity="1" stroke-width="0.5" stroke-linecap="round" stroke-linejoin="round" stroke-dasharray="1,6" fill="#fff" fill-opacity="0.2" fill-rule="evenodd" d="M794 816L797 811L794 811L798 808L798 803L802 811L804 809L813 807L816 811L818 809L817 805L820 803L821 806L825 808L825 806L829 802L831 803L831 801L834 802L836 805L838 804L840 806L841 803L839 803L842 800L846 804L847 802L852 802L857 798L860 799L863 795L862 794L868 792L867 789L871 784L873 785L877 783L877 781L874 780L871 774L872 768L867 759L868 756L867 755L862 757L861 754L859 754L858 750L856 752L854 750L851 751L848 749L846 751L846 749L844 752L846 758L844 759L840 757L840 755L836 752L827 755L824 758L821 757L820 759L816 758L814 760L813 758L808 756L812 753L813 748L821 744L821 741L818 737L810 740L805 740L803 736L800 739L795 739L787 734L783 738L778 739L778 741L782 742L782 748L776 750L774 744L768 744L767 742L764 743L761 747L763 749L762 751L757 755L760 763L757 767L756 766L757 774L755 773L754 777L751 776L750 781L747 781L747 784L744 789L744 795L746 795L744 800L741 803L737 804L737 806L730 808L729 813L731 815L730 814L728 816L729 817L721 817L722 824L713 825L711 830L707 831L708 834L711 835L710 837L708 837L708 841L706 843L705 848L707 855L711 859L711 865L720 864L726 859L724 854L722 854L722 851L719 850L717 846L719 846L723 841L727 841L729 838L737 835L742 834L742 836L748 833L751 834L753 831L755 832L754 833L759 831L759 827L767 829L769 826L773 828L777 824L780 826L783 819L787 824L789 824L794 819L794 816zM873 786L871 786L876 786L873 786zM778 828L779 827L775 829L776 832L778 828zM771 832L774 830L772 829L771 831zM809 821L810 821zM723 842L726 844L728 841L723 842zM769 830L769 829zM725 844L720 844L718 848L721 846L724 846L725 848L726 845zM799 823L798 822zM798 824L798 823zM785 826L786 825L784 825zM800 812L799 811zM808 822L808 821zM808 822L807 822zM867 852L869 852L870 854L867 856L869 856L871 854L868 851zM782 825L782 825zM722 854L723 853zM728 848L726 847L726 849L728 848zM726 862L726 861zM848 844L851 846L851 843L849 843zM848 847L849 848L849 846zM846 804L846 804zM846 804L846 804z"/><path class="leaflet-interactive" stroke="#333" stroke-opacity="1" stroke-width="0.5" stroke-linecap="round" stroke-linejoin="round" stroke-dasharray="1,6" fill="#fff" fill-opacity="0.2" fill-rule="evenodd" d="M701 721L697 729L695 729L695 727L691 727L688 730L692 730L691 734L683 731L681 735L682 739L676 734L671 736L672 737L670 742L662 744L663 743L660 741L660 739L657 742L650 732L646 733L644 736L645 740L642 743L641 742L629 748L625 748L627 750L626 753L623 755L613 753L609 749L605 749L604 747L600 750L600 752L593 757L590 754L588 756L588 759L593 764L594 761L600 761L604 763L603 765L605 768L603 768L605 771L607 769L611 772L611 769L613 769L614 771L617 770L617 772L620 771L620 769L623 770L626 775L625 782L622 786L621 784L619 784L615 787L615 789L614 788L612 791L612 795L616 795L619 799L625 797L629 800L636 799L640 802L641 801L641 803L635 809L635 812L637 813L638 817L638 823L639 821L645 823L645 825L648 828L651 828L654 832L655 830L657 832L663 830L670 834L672 833L672 831L672 834L679 833L682 829L684 831L694 832L694 834L691 835L694 837L702 835L704 833L708 835L707 831L711 830L712 825L722 824L721 817L729 817L728 816L730 814L731 815L729 813L730 808L737 806L744 800L746 796L744 793L745 785L747 784L747 781L751 779L751 776L754 777L755 773L757 774L756 766L757 767L760 764L758 760L759 759L757 757L758 754L752 752L748 756L746 756L747 747L742 743L738 749L735 748L736 743L742 737L744 732L743 729L746 726L740 723L742 720L741 715L735 712L734 715L730 716L730 714L727 713L721 723L719 723L717 720L715 721L715 719L712 717L708 722L709 725L706 725L707 722L702 722zM602 749L601 749zM692 846L694 844L692 845z"/><path class="leaflet-interactive" stroke="#333" stroke-opacity="1" stroke-width="0.5" stroke-linecap="round" stroke-linejoin="round" stroke-dasharray="1,6" fill="#fff" fill-opacity="0.2" fill-rule="evenodd" d="M716 870L705 870L700 873L697 872L689 882L682 886L681 898L683 902L683 908L704 915L707 914L708 910L714 910L716 906L721 903L724 903L724 900L726 900L727 898L727 891L730 885L737 879L737 876L735 870L730 869L729 867L725 869L716 869zM788 1149L790 1147L789 1145L788 1148zM746 941L749 940L746 940zM889 985L889 987L891 987L889 987L889 984zM753 961L754 960L752 960L754 961zM751 960L749 961L752 961L749 961L751 960zM804 1132L805 1134L804 1132zM803 1133L804 1133zM758 958L759 958zM753 955L753 954zM764 1132L763 1133zM809 1135L810 1136L809 1134zM764 942L763 943L765 942zM820 1098L821 1099L820 1097zM846 1113L847 1114L847 1111zM818 1107L820 1107zM856 1132L857 1131zM769 966L773 965L772 964L769 966zM771 1133L772 1133zM815 1087L817 1087L817 1085zM768 959L767 960L770 959zM861 1097L860 1098L863 1099L864 1098L861 1098L862 1096zM767 944L765 943zM747 955L748 955zM838 1109L840 1109L839 1108zM819 1148L821 1148zM831 1143L832 1145L834 1144L832 1143zM837 1120L838 1121L837 1120zM860 1125L861 1126zM796 1130L798 1129L796 1130zM820 1083L822 1081L820 1082zM818 1073L818 1071zM825 1086L825 1085zM749 955L750 956L749 954zM803 1132L802 1133zM866 1072L867 1073L866 1071zM752 952L752 952zM770 955L772 954L770 954zM753 965L755 964zM801 1106L801 1103zM862 1112L863 1113zM833 1102L833 1101zM869 1095L869 1095zM820 962L823 961L820 961zM849 1122L848 1123L850 1123zM796 1124L797 1124zM815 1090L816 1088zM890 1088L891 1089L891 1087L890 1088zM810 1101L812 1100L810 1100zM820 1072L821 1072zM864 1095L866 1094zM727 1149L725 1149zM746 1140L747 1140zM833 1141L834 1141zM806 1085L806 1084zM878 1099L879 1098zM809 965L810 965zM838 1141L839 1142L839 1140zM751 1137L752 1137zM766 1131L767 1131zM860 1111L861 1110zM815 976L815 976zM827 1081L827 1081zM807 966L807 966zM851 1104L851 1103zM878 1090L882 1091L881 1089L879 1089zM777 1131L778 1131zM763 1133L764 1133zM818 1133L820 1132L818 1132zM780 1143L780 1142zM865 958L866 959L866 957zM880 1104L881 1104zM781 883L782 882L781 883zM814 965L816 965L815 964zM800 891L802 890L800 890zM764 1132L765 1132zM835 1014L837 1014L835 1014zM795 1101L796 1101zM801 978L802 978zM764 948L763 947zM764 973L765 972L763 973zM853 1116L854 1116zM803 970L804 971L803 970zM825 965L825 966zM867 1128L866 1129zM773 957L774 956zM740 872L741 872zM844 1096L845 1096zM877 1089L877 1090zM774 958L774 958zM845 1094L845 1094zM770 1117L772 1117zM818 974L818 975zM879 1081L879 1083zM888 1082L888 1083zM808 1120L809 1120zM820 1112L820 1113z"/><path class="leaflet-interactive" stroke="#333" stroke-opacity="1" stroke-width="0.5" stroke-linecap="round" stroke-linejoin="round" stroke-dasharray="1,6" fill="#fff" fill-opacity="0.2" fill-rule="evenodd" d="M631 657L633 657L634 654L632 650L633 649L637 655L635 657L638 659L640 656L639 655L640 656L642 653L641 651L644 651L645 648L650 648L649 649L652 650L655 646L653 643L654 640L658 639L658 641L662 640L665 646L669 643L674 643L676 648L675 653L682 655L681 661L682 662L682 659L684 658L684 664L690 667L691 665L692 666L694 660L698 656L695 655L697 653L696 646L698 644L693 639L694 638L692 634L691 636L689 636L688 629L683 627L683 623L681 622L679 626L676 623L679 622L681 615L681 612L677 608L677 606L681 606L683 603L685 606L687 606L690 602L692 602L694 605L697 602L699 604L698 605L708 596L711 595L715 598L717 595L716 590L718 588L716 582L712 579L707 578L706 573L699 574L690 566L679 560L676 562L678 563L675 564L676 565L673 567L678 572L680 572L680 575L673 579L673 581L668 586L670 587L668 589L666 595L667 596L664 598L662 596L658 596L655 598L657 602L653 606L653 609L646 618L639 618L636 614L636 611L632 611L627 614L625 610L618 607L616 612L612 614L616 618L616 622L613 623L612 626L610 626L606 631L609 637L615 637L617 643L616 644L618 646L617 647L623 646L628 649L630 657zM693 603L693 604zM613 616L612 615zM693 604L693 604zM646 618L646 618z"/><path class="leaflet-interactive" stroke="#333" stroke-opacity="1" stroke-width="0.5" stroke-linecap="round" stroke-linejoin="round" stroke-dasharray="1,6" fill="#fff" fill-opacity="0.2" fill-rule="evenodd" d="M512 691L511 696L514 697L514 699L517 699L517 703L520 702L519 706L517 707L523 712L522 715L525 716L528 721L529 719L535 719L543 713L545 713L545 716L547 717L549 714L553 713L555 708L551 699L552 686L557 686L560 680L565 676L565 668L568 664L570 665L573 663L573 654L586 655L585 657L583 657L582 660L584 663L585 662L587 664L585 670L590 675L593 673L597 673L601 668L604 669L603 670L606 673L606 678L611 677L616 679L620 677L628 677L630 672L627 667L620 668L620 665L617 662L615 664L614 662L614 657L620 654L621 651L630 659L631 658L627 647L617 647L618 646L616 644L617 643L615 637L610 637L606 631L610 626L612 626L616 622L616 618L612 615L614 614L614 612L616 612L618 607L623 609L627 614L632 611L636 611L638 615L637 616L639 618L647 617L653 609L653 606L657 602L655 598L657 596L660 597L662 595L662 597L664 598L667 596L666 593L669 591L668 589L670 587L668 587L672 583L672 580L679 575L680 572L678 572L673 567L676 565L675 564L678 563L676 561L679 561L679 559L673 558L672 560L668 560L667 562L660 555L656 554L655 551L651 555L647 551L647 548L645 546L635 547L631 549L629 547L626 547L623 542L619 544L618 543L617 546L616 545L613 547L611 541L609 541L608 542L610 546L602 550L600 548L597 550L596 548L593 549L583 543L583 541L586 538L584 538L585 534L583 530L586 530L583 530L583 528L581 527L581 522L578 520L566 520L566 517L560 518L557 516L558 509L556 506L553 505L553 503L549 504L546 507L546 509L541 509L539 512L535 512L539 519L538 521L542 524L542 527L541 526L540 528L536 529L536 532L534 531L532 534L531 533L528 536L526 532L530 527L528 523L523 528L523 536L520 533L517 533L517 535L515 532L512 531L512 548L510 547L507 550L501 547L502 548L500 552L495 546L494 547L495 545L491 546L490 549L488 548L489 546L483 537L483 539L480 541L481 542L479 546L476 543L471 541L469 542L466 537L461 536L458 533L457 526L455 525L454 522L455 521L449 515L450 512L448 509L444 509L439 506L432 508L432 513L428 515L426 514L426 516L427 522L430 526L434 528L428 534L430 538L427 539L425 542L429 549L445 557L450 566L449 569L454 577L460 582L458 586L455 583L454 586L458 592L458 596L462 599L461 605L463 611L462 614L464 617L463 629L467 660L471 666L473 661L472 657L479 649L480 653L485 657L485 659L490 664L486 666L490 672L489 673L493 674L493 678L496 674L498 676L500 673L503 679L505 679L504 681L506 685L507 684L510 692L512 691zM628 613L628 614zM644 616L644 617zM612 614L612 614z"/><path class="leaflet-interactive" stroke="#333" stroke-opacity="1" stroke-width="0.5" stroke-linecap="round" stroke-linejoin="round" stroke-dasharray="1,6" fill="#fff" fill-opacity="0.2" fill-rule="evenodd" d="M697 658L694 660L693 666L691 665L690 667L688 665L684 665L685 659L684 658L682 662L682 655L675 653L675 643L663 645L663 641L659 641L658 639L654 640L654 649L650 651L650 649L645 648L645 651L642 651L642 655L639 655L639 659L635 657L637 655L633 649L632 650L634 653L634 657L631 656L630 659L621 651L621 653L615 657L613 660L615 664L617 662L620 665L620 668L627 667L628 671L630 672L628 677L616 679L607 677L603 687L604 686L596 689L595 687L590 689L588 686L585 685L581 689L575 685L574 689L570 693L568 693L572 700L570 700L572 708L578 709L579 706L586 705L592 711L588 718L589 719L586 728L584 728L584 731L587 734L586 735L589 734L591 740L595 741L595 743L594 742L591 746L593 747L589 754L591 756L596 755L604 747L609 749L613 753L618 755L621 754L623 756L627 751L625 748L632 747L641 742L642 743L645 740L644 736L650 732L656 742L659 739L661 742L662 741L662 744L664 744L670 742L671 737L675 734L682 739L681 736L683 731L691 734L692 730L688 729L690 729L691 727L695 727L695 729L697 729L701 722L701 714L697 714L700 708L697 704L700 704L700 699L703 698L701 693L696 693L694 695L693 693L688 696L686 694L688 694L688 691L701 681L697 672L699 670L697 670L699 664L696 662L696 659zM701 701L701 703L701 699L701 701zM702 703L703 703z"/><path class="leaflet-interactive" stroke="#333" stroke-opacity="1" stroke-width="0.5" stroke-linecap="round" stroke-linejoin="round" stroke-dasharray="1,6" fill="#fff" fill-opacity="0.2" fill-rule="evenodd" d="M606 678L606 673L603 670L604 669L601 668L594 674L593 673L591 675L587 673L584 670L587 667L587 665L582 660L585 655L573 654L572 657L574 663L570 666L568 664L567 665L564 670L566 672L564 677L556 686L552 686L551 689L551 699L554 702L555 708L554 713L551 713L547 717L546 714L543 713L534 720L529 719L528 721L526 719L527 718L522 715L523 712L517 707L519 707L520 702L518 702L519 703L517 704L517 699L511 696L512 692L509 691L509 688L507 684L506 685L505 679L503 679L501 673L498 676L496 674L493 678L493 675L489 673L490 672L486 667L490 664L490 662L485 659L484 655L482 655L479 649L475 652L475 655L472 657L473 661L471 666L470 665L467 661L465 651L465 639L462 640L463 644L461 646L461 650L459 650L458 645L454 646L456 652L454 654L454 658L457 662L456 665L450 668L448 666L448 663L445 662L446 665L443 667L445 679L448 683L450 682L450 680L453 680L457 688L456 695L458 706L457 713L455 716L457 717L455 720L455 718L453 719L456 726L453 726L449 732L444 732L444 736L439 742L436 740L434 745L435 752L433 751L430 753L429 761L433 761L434 763L432 764L435 766L429 774L432 776L442 770L456 770L460 768L460 770L457 773L455 773L455 777L458 778L460 782L458 784L461 786L460 792L465 795L475 795L476 799L473 799L472 803L470 803L472 808L466 818L474 818L483 821L485 820L485 829L488 829L488 832L491 835L494 833L499 835L506 829L509 829L510 827L513 834L512 838L515 842L520 840L522 840L522 842L526 842L527 841L525 838L525 832L527 832L527 830L525 828L526 826L521 819L524 810L526 809L528 812L532 810L537 811L541 804L544 803L555 811L561 802L564 803L565 807L568 802L576 809L579 803L582 801L582 803L585 805L590 801L596 799L595 794L605 790L607 787L611 792L614 788L615 789L614 787L619 784L624 785L625 783L626 776L621 769L617 772L618 771L614 771L614 769L611 769L611 772L607 770L605 771L603 768L605 768L603 765L604 764L600 761L594 761L593 764L590 762L588 756L590 750L593 747L592 744L594 742L595 743L595 741L591 740L589 734L586 735L587 734L584 731L584 728L586 728L587 720L589 719L588 718L592 711L589 707L587 707L586 704L585 706L578 707L578 709L572 708L570 703L570 700L572 700L571 697L569 695L568 696L568 694L569 695L568 694L574 689L575 685L581 690L585 685L590 689L604 686L603 687L605 685L606 680z"/><path class="leaflet-interactive" stroke="#333" stroke-opacity="1" stroke-width="0.5" stroke-linecap="round" stroke-linejoin="round" stroke-dasharray="1,6" fill="#fff" fill-opacity="0.2" fill-rule="evenodd" d="M251 453L246 452L244 449L241 448L238 449L232 446L230 448L226 443L221 442L204 446L200 446L200 444L198 444L191 448L187 447L181 450L179 449L171 452L172 455L170 458L166 462L160 463L158 466L150 462L145 463L138 467L134 467L132 471L125 474L122 472L113 475L109 473L103 473L98 469L98 465L93 466L88 464L86 464L73 477L65 477L61 474L56 474L55 472L53 475L48 475L40 471L37 474L39 478L36 478L36 480L31 483L31 487L28 491L26 498L20 498L16 500L11 499L9 500L6 508L5 507L0 509L0 511L2 511L3 519L1 520L1 522L5 528L7 528L7 530L10 532L9 533L11 534L11 538L12 540L14 540L13 545L15 546L14 551L11 553L10 556L9 555L7 557L3 554L3 549L1 547L-6 551L-4 554L-5 556L-3 558L-5 560L2 567L2 569L0 570L2 575L3 574L4 576L2 580L3 584L5 584L10 593L12 592L13 594L17 591L20 594L25 594L30 598L29 599L31 603L38 604L54 612L58 619L60 617L59 615L62 614L62 608L66 609L68 607L79 611L81 615L80 616L89 620L93 624L92 625L104 629L111 640L114 641L118 637L124 637L124 639L126 639L125 640L127 648L131 649L132 651L136 652L141 656L144 656L146 653L149 655L147 661L150 664L153 664L155 662L159 664L160 661L161 665L164 666L167 673L170 673L169 670L171 667L172 672L173 671L176 673L180 670L180 668L182 668L186 671L187 670L191 672L192 675L194 676L203 674L203 676L206 676L209 673L215 674L216 672L223 671L227 668L230 669L233 675L230 685L235 691L239 688L237 684L241 676L249 667L253 665L258 667L265 667L269 670L274 669L277 672L280 672L281 675L283 675L284 672L288 669L295 674L294 682L297 685L304 684L306 690L304 694L306 700L316 698L329 700L345 696L348 689L355 682L367 679L378 672L381 667L391 663L394 666L401 665L401 667L404 667L413 674L417 674L417 676L420 678L427 671L425 669L425 665L427 663L428 664L430 657L432 657L434 661L438 661L442 667L444 667L447 661L449 665L448 666L450 668L453 666L454 667L457 662L454 654L454 646L457 645L459 647L459 650L461 650L461 646L463 644L462 641L465 639L463 629L464 617L462 614L462 599L458 595L454 587L455 583L458 586L460 582L449 570L450 566L445 557L439 553L427 550L425 552L427 557L424 558L423 561L424 564L416 564L416 566L411 565L413 569L412 571L414 573L413 574L407 573L404 571L403 568L399 568L399 576L394 571L392 571L391 573L384 573L380 567L382 561L379 562L377 558L374 559L374 557L378 556L373 556L372 554L371 555L367 553L364 548L357 552L353 552L353 554L341 550L338 553L336 551L335 552L332 548L328 549L326 546L309 546L308 542L303 544L300 540L292 536L276 536L267 532L264 527L258 524L258 520L256 519L257 517L252 514L250 510L255 503L254 496L252 493L254 487L248 487L249 482L246 478L247 474L253 470L251 469L253 467L253 460L246 459L244 455L249 455L251 453z"/><path class="leaflet-interactive" stroke="#333" stroke-opacity="1" stroke-width="0.5" stroke-linecap="round" stroke-linejoin="round" stroke-dasharray="1,6" fill="#fff" fill-opacity="0.2" fill-rule="evenodd" d="M722 495L719 494L718 487L727 467L723 451L725 442L722 437L722 428L729 419L728 415L730 415L731 412L731 408L725 400L725 393L726 390L733 386L733 381L736 374L735 371L739 368L742 361L740 361L740 359L739 360L737 358L739 354L738 353L733 355L729 362L727 362L725 359L723 359L722 361L717 356L716 357L718 362L712 364L711 362L710 363L712 364L711 366L705 370L705 374L700 376L700 378L698 379L699 381L697 381L689 391L692 398L690 401L687 397L686 398L686 408L671 410L667 407L667 405L660 402L660 405L656 406L652 411L652 430L656 430L659 433L660 432L665 434L669 439L671 440L672 438L672 440L676 441L678 444L682 444L682 449L684 452L683 456L679 459L679 464L682 468L682 475L675 475L673 477L672 475L669 477L662 475L660 477L664 484L659 486L658 485L649 487L649 485L643 481L635 481L633 484L635 490L632 493L633 494L629 496L634 497L638 502L637 505L634 503L633 505L634 504L635 507L631 514L635 522L634 525L632 524L632 522L626 524L624 522L621 522L618 528L615 528L617 530L616 531L621 533L620 539L614 542L612 541L611 544L613 547L616 545L617 546L618 543L619 544L623 542L626 547L631 549L639 546L645 546L647 548L648 553L651 555L651 553L654 551L657 555L660 555L667 562L670 559L671 560L673 558L678 558L680 561L697 571L697 573L703 573L705 570L705 563L702 558L703 552L705 551L704 550L707 549L714 551L718 549L716 544L710 541L708 542L708 537L700 535L704 532L711 532L714 534L724 534L725 532L729 536L736 530L735 522L732 520L731 517L726 515L728 513L727 510L726 511L728 507L723 505L723 503L725 502L722 500L721 496zM736 526L736 526zM624 545L624 545z"/><path class="leaflet-interactive" stroke="#333" stroke-opacity="1" stroke-width="0.5" stroke-linecap="round" stroke-linejoin="round" stroke-dasharray="1,6" fill="#fff" fill-opacity="0.2" fill-rule="evenodd" d="M634 463L632 465L632 469L634 472L632 476L630 476L627 472L620 472L623 470L619 470L615 464L617 464L610 464L610 462L608 462L607 459L607 455L611 453L610 448L607 441L604 438L604 436L607 434L606 431L603 431L604 429L599 427L596 422L591 422L590 421L593 418L592 417L588 415L581 416L569 405L563 403L562 396L566 394L563 387L573 380L581 371L581 367L578 361L579 357L573 356L564 359L554 367L545 365L541 362L527 367L532 373L526 380L522 380L521 378L516 376L516 374L514 374L513 371L514 369L511 371L508 371L506 369L505 370L505 358L497 358L497 356L493 355L493 352L491 350L483 347L482 344L473 344L482 340L489 332L489 324L491 322L491 319L488 314L478 312L476 315L467 315L467 318L465 320L462 317L458 319L458 321L456 321L455 317L453 318L454 320L448 323L448 313L439 307L431 296L437 291L421 256L403 258L396 262L394 267L396 267L395 269L399 273L396 275L398 278L396 282L391 285L385 286L379 291L379 293L377 292L375 287L369 290L366 294L361 295L349 307L345 314L344 320L325 323L318 355L311 363L313 369L315 367L329 365L329 367L331 368L330 372L343 372L346 375L344 375L344 377L346 378L357 377L362 389L371 386L375 387L378 390L383 390L388 387L389 389L391 389L391 391L392 390L396 394L397 393L400 395L402 394L403 391L410 392L410 385L413 384L413 382L419 382L416 373L416 369L418 366L416 364L428 366L429 368L431 368L442 376L446 373L446 369L449 369L453 372L459 367L460 369L464 370L464 372L479 387L490 392L486 384L491 386L491 388L496 391L500 391L505 395L506 394L506 399L510 401L511 400L513 403L517 405L519 403L527 409L530 407L532 408L534 412L533 414L538 416L546 425L542 425L543 427L541 428L546 432L547 434L545 436L548 439L550 446L555 450L551 454L553 456L553 460L547 462L549 468L548 469L543 468L540 472L538 472L537 475L540 479L538 480L538 482L533 484L533 487L529 487L529 494L531 497L535 497L537 502L535 502L534 504L533 503L530 508L525 509L519 505L514 504L513 502L510 503L506 501L503 507L513 517L512 520L522 520L522 525L525 525L528 522L530 527L526 531L528 536L531 533L532 534L534 531L536 533L535 530L538 527L542 527L542 525L538 521L539 519L537 515L534 512L540 512L541 509L545 509L546 506L552 503L558 509L558 517L566 517L567 520L578 520L581 522L580 524L583 530L586 530L584 530L584 538L586 538L583 541L583 543L587 546L588 545L591 548L595 548L597 550L600 548L602 550L610 546L608 543L610 541L616 541L620 539L621 536L620 532L618 532L615 528L618 528L618 526L623 522L625 522L626 524L631 522L634 525L635 523L633 515L631 514L635 508L635 505L633 505L634 503L637 504L638 501L634 497L629 496L635 490L633 485L635 481L643 481L647 483L649 487L658 485L659 486L664 484L660 478L662 476L669 477L672 475L682 475L682 469L679 464L679 459L683 456L684 452L682 449L682 444L680 444L679 442L679 444L677 443L675 440L672 439L673 438L671 440L662 433L653 430L649 423L645 425L643 423L642 425L640 423L639 425L636 424L637 428L634 428L637 431L637 433L632 438L633 439L630 440L634 443L634 448L638 448L640 450L641 449L644 453L643 458L641 459L643 463L642 462L639 465L635 463zM623 470L624 470zM550 446L550 446zM624 471L624 472zM634 463L633 463z"/><path class="leaflet-interactive" stroke="#333" stroke-opacity="1" stroke-width="0.5" stroke-linecap="round" stroke-linejoin="round" stroke-dasharray="1,6" fill="#fff" fill-opacity="0.2" fill-rule="evenodd" d="M550 446L549 442L545 437L545 435L547 434L541 428L543 427L542 425L546 425L535 414L533 414L534 412L531 407L527 409L523 407L524 406L522 404L513 403L507 399L507 394L505 395L503 392L495 391L491 386L486 384L490 392L488 392L478 386L464 373L464 370L457 367L453 372L447 369L445 372L446 373L442 376L433 371L428 366L416 364L418 366L416 369L416 373L419 382L416 383L413 381L413 384L410 385L410 392L403 391L400 395L397 393L396 394L392 390L391 391L391 389L388 388L384 390L379 390L371 386L368 388L362 388L357 377L346 378L344 377L343 375L346 375L343 372L330 372L330 365L325 365L285 378L274 380L273 379L272 382L268 385L261 385L261 389L264 392L266 392L266 390L270 390L270 407L276 409L280 414L281 413L283 415L285 422L287 423L288 427L284 427L282 428L282 430L277 430L274 436L275 439L282 442L281 447L284 453L280 453L279 455L277 455L276 453L263 451L258 448L259 449L257 454L251 453L249 455L244 455L246 459L253 460L253 467L251 469L252 470L247 474L245 478L249 482L248 486L253 486L255 489L252 493L254 499L253 501L255 502L254 507L250 509L251 512L256 517L256 519L258 519L258 524L260 524L260 526L263 527L267 532L276 536L292 536L300 540L303 544L307 542L309 546L327 546L328 549L332 548L335 552L336 551L338 553L341 550L343 550L347 553L352 554L353 552L358 550L359 551L362 548L364 548L366 552L370 555L372 554L378 556L374 557L374 559L377 557L379 562L382 561L382 566L380 567L384 573L390 572L391 574L392 571L394 571L398 574L398 576L400 575L399 568L403 568L407 573L414 573L411 566L414 567L415 565L417 565L416 564L424 564L424 558L427 557L425 551L427 550L433 552L427 547L425 542L427 539L430 538L428 534L434 528L430 526L429 523L427 522L426 514L432 514L432 508L436 506L448 509L450 511L449 515L455 521L454 522L455 525L457 525L458 533L461 536L467 538L469 542L476 543L479 546L481 542L480 541L483 539L483 537L488 543L488 548L490 549L491 546L495 545L494 547L495 546L500 552L502 548L501 547L507 550L510 547L511 548L514 543L511 541L511 533L515 532L517 535L517 533L519 533L523 536L525 531L523 530L523 528L526 526L526 524L522 525L522 521L520 520L512 521L513 517L505 509L504 503L506 501L510 503L513 502L525 509L528 507L529 508L532 506L531 505L533 503L534 504L535 502L537 502L535 497L534 498L530 496L529 488L533 487L533 484L535 484L539 479L537 475L538 472L540 472L543 468L548 470L549 469L547 462L549 460L553 461L553 456L551 454L554 450L550 446z"/><path class="leaflet-interactive" stroke="#333" stroke-opacity="1" stroke-width="0.5" stroke-linecap="round" stroke-linejoin="round" stroke-dasharray="1,6" fill="#fff" fill-opacity="0.2" fill-rule="evenodd" d="M651 425L653 423L651 421L651 415L653 413L652 410L658 405L660 405L660 403L656 400L655 401L655 399L649 394L644 395L633 390L636 388L638 378L644 372L644 369L639 359L628 362L629 365L625 365L623 371L621 372L622 374L619 378L620 379L618 385L619 390L617 393L617 405L613 405L613 407L610 408L604 408L600 411L586 413L583 416L592 416L593 418L590 421L596 422L599 427L604 429L603 431L605 431L607 434L604 435L604 437L608 442L611 452L607 455L608 462L609 461L610 464L617 464L615 464L619 470L622 469L625 474L626 472L630 477L633 475L634 472L632 469L633 463L639 465L642 462L643 463L641 459L644 456L644 453L641 449L634 449L633 447L634 443L631 440L637 433L637 431L634 428L637 428L636 424L645 425L649 423L650 425zM623 470L620 471L623 471zM624 471L624 471z"/><path class="leaflet-interactive" stroke="#333" stroke-opacity="1" stroke-width="0.5" stroke-linecap="round" stroke-linejoin="round" stroke-dasharray="1,6" fill="#fff" fill-opacity="0.2" fill-rule="evenodd" d="M403 258L403 252L393 242L384 218L379 217L380 211L382 209L381 208L372 210L371 208L365 207L351 194L335 186L326 186L324 184L315 186L306 183L292 183L291 181L289 182L286 181L285 179L278 180L276 173L273 170L273 167L274 162L281 153L281 149L278 143L283 135L281 128L279 126L279 122L277 120L275 121L269 110L270 108L268 106L269 105L266 97L263 97L260 94L260 91L253 92L252 90L250 90L248 85L237 87L226 79L226 75L224 73L222 73L220 70L213 68L212 67L215 63L212 60L211 61L207 56L210 54L208 46L203 47L200 50L197 48L190 47L187 48L186 51L184 52L184 56L186 57L184 60L185 62L180 68L172 72L162 72L160 78L157 81L156 85L158 104L160 106L160 112L157 118L151 118L143 125L138 120L120 121L116 119L115 120L102 112L99 113L99 118L97 120L94 134L84 156L82 166L82 168L90 175L89 179L87 180L83 178L74 178L71 173L54 181L52 180L51 182L42 182L39 185L34 184L28 189L30 190L30 192L34 191L35 194L38 195L40 198L38 202L40 208L39 214L41 215L42 224L48 234L46 239L48 240L49 244L39 248L44 252L36 254L36 258L34 261L37 272L36 274L34 274L35 278L29 279L25 283L11 288L0 296L-8 299L-10 298L-13 304L-19 306L-19 308L-22 310L-34 310L-38 308L-44 313L-44 316L-46 318L-45 320L-49 328L-53 330L-54 328L-60 330L-61 329L-62 332L-67 331L-67 327L-70 321L-73 322L-78 327L-86 325L-88 327L-85 330L-86 331L-90 330L-98 338L-106 338L-108 344L-110 345L-110 348L-108 348L-107 352L-109 356L-114 356L-117 359L-117 362L-114 363L-112 369L-110 369L-110 371L-113 373L-111 376L-111 381L-106 384L-103 379L-96 380L-88 383L-86 387L-88 389L-88 393L-84 405L-85 412L-81 414L-80 418L-88 421L-90 419L-91 421L-94 420L-96 423L-95 426L-94 425L-93 427L-90 425L-85 429L-79 427L-78 429L-77 428L-74 430L-73 436L-71 434L-65 436L-62 439L-60 444L-61 446L-59 449L-62 452L-62 454L-58 455L-56 461L-52 461L-48 458L-48 461L-43 466L-41 465L-40 467L-36 467L-29 471L-21 471L-19 469L-17 471L-12 470L-15 474L-15 477L-14 481L-12 481L-10 485L-10 492L-7 495L-2 496L-2 498L1 497L3 500L9 502L8 500L11 499L16 500L20 498L26 498L28 494L27 493L31 487L31 483L36 480L36 478L39 478L37 474L40 471L48 475L54 475L55 472L59 475L60 474L73 477L77 475L77 472L83 469L86 464L88 464L93 466L98 465L98 469L102 473L104 472L113 475L122 472L124 474L131 471L134 467L138 467L145 463L150 462L157 466L159 463L168 460L172 455L171 452L176 450L181 450L187 447L191 448L199 444L200 446L203 446L223 442L226 443L230 448L231 446L234 446L240 449L244 449L246 452L253 454L256 454L259 449L258 448L263 451L272 452L279 455L280 453L283 453L281 443L282 442L274 438L274 436L277 430L282 430L282 428L288 427L288 425L285 422L283 415L281 413L280 414L276 409L271 407L270 390L264 392L261 389L261 385L268 385L273 380L285 378L291 375L312 370L313 369L311 363L318 355L325 323L344 320L345 314L349 307L361 295L366 294L369 290L374 287L379 293L379 291L385 286L391 285L396 282L398 279L396 275L399 273L395 270L396 267L394 267L395 263L398 261z"/><path class="leaflet-interactive" stroke="#333" stroke-opacity="1" stroke-width="0.5" stroke-linecap="round" stroke-linejoin="round" stroke-dasharray="1,6" fill="#fff" fill-opacity="0.2" fill-rule="evenodd" d="M951 811L954 813L956 818L955 821L958 824L960 824L961 814L965 805L968 803L973 794L978 770L984 759L983 751L986 747L977 739L974 740L971 744L964 746L961 753L956 757L951 768L943 780L943 789L941 795L944 797L947 809zM1044 724L1045 723zM1019 729L1021 729L1019 728zM933 783L932 782L932 784zM1024 724L1025 723zM929 781L929 783L930 781zM929 787L930 788zM931 780L932 782L931 780zM988 731L988 731zM974 805L975 805zM975 819L977 822L977 820zM988 735L989 735zM927 792L928 792zM949 814L949 813z"/><path class="leaflet-interactive" stroke="#333" stroke-opacity="1" stroke-width="0.5" stroke-linecap="round" stroke-linejoin="round" stroke-dasharray="1,6" fill="#fff" fill-opacity="0.2" fill-rule="evenodd" d="M805 809L802 811L802 813L804 813L801 816L803 817L806 814L809 817L811 812L812 813L813 811L810 811L809 810L810 811L812 809L810 808L806 809zM807 816L808 817zM811 812L812 813L811 812zM811 812L811 812zM811 813L811 812zM811 814L811 814zM811 812L811 812zM813 814L813 814zM812 814L812 814z"/><path class="leaflet-interactive" stroke="#333" stroke-opacity="1" stroke-width="0.5" stroke-linecap="round" stroke-linejoin="round" stroke-dasharray="1,6" fill="#fff" fill-opacity="0.2" fill-rule="evenodd" d="M794 819L794 818zM795 817L794 817z"/><path class="leaflet-interactive" stroke="#333" stroke-opacity="1" stroke-width="0.5" stroke-linecap="round" stroke-linejoin="round" stroke-dasharray="1,6" fill="#fff" fill-opacity="0.2" fill-rule="evenodd" d="M998 786L1004 758L998 786zM967 851L984 829L967 851zM929 918L941 894L929 918zM920 989L920 965L920 989zM911 1079L907 1085L911 1079L918 1060L915 1069zM716 1075L714 1077L715 1078L719 1069L721 1054L720 1065L717 1072zM709 984L710 986L704 970L697 961L708 979z"/></g></svg>